<svg width="220" height="197" viewBox="0 0 220 197" fill="none" xmlns="http://www.w3.org/2000/svg">
<path d="M91.7683 179.166L88.2748 179.21C86.3981 179.232 84.6083 180.09 83.309 181.595C82.0097 183.096 81.3106 185.118 81.3691 187.201C81.416 188.859 82.0566 190.433 83.1502 191.568C84.2435 192.698 85.6991 193.302 87.195 193.244L92.5441 193.025L91.7683 179.166Z" fill="#FFBE9D"/>
<path d="M125.75 179.162L129.241 179.311C131.117 179.391 132.884 180.308 134.145 181.849C135.407 183.394 136.055 185.434 135.945 187.514C135.857 189.171 135.177 190.724 134.056 191.822C132.934 192.923 131.464 193.48 129.971 193.374L124.629 192.993L125.75 179.162Z" fill="#FFBE9D"/>
<path d="M35.6304 139.395L83.3816 151.142L132.812 153.963L194.739 139.395L115.184 179.661L35.6304 139.395Z" fill="#032E42"/>
<path d="M74.5746 62.5622C78.604 59.7882 83.059 57.6977 87.7821 56.4143C89.5559 55.9307 99.1348 58.7157 105.056 58.5775C113.184 58.3921 121.458 54.691 128.157 56.3597C134.813 58.0213 140.26 60.1881 143.405 62.4277C152.819 69.1283 158.346 81.6205 161.714 93.9928C155.336 100.544 147.31 103.456 147.31 103.456L138.991 157.948C119.383 167.79 99.6365 166.525 79.7809 156.574L71.165 102.642C71.165 102.642 58.2819 96.6395 57.3369 94.4545C56.3914 92.2694 63.2081 70.3826 74.5746 62.5622Z" fill="#2B6684"/>
<path d="M56.2813 179.661C65.2493 177.886 85.8309 179.621 85.8309 179.621L86.6124 181.918L87.7188 193.251C87.7188 193.251 68.0042 196.189 58.3301 195.883C57.3429 195.85 56.444 195.676 55.6258 195.392C55.3373 195.12 55.056 194.836 54.7904 194.531C50.798 189.917 52.1479 183.365 56.2813 179.661Z" fill="#032E42"/>
<path d="M211.628 145.34C207.58 136.022 197.686 134.513 189.265 138.868C189.119 139.061 135.787 166.409 88.7542 178.396C90.1007 182.715 90.7932 187.31 90.944 191.829C90.9713 192.836 90.9546 193.829 90.8953 194.807C126.963 192.953 166.106 180.919 199.743 170.342C210.174 166.976 216.111 155.665 211.628 145.34Z" fill="#032E42"/>
<path d="M161.211 180.747C152.291 178.697 131.673 179.798 131.673 179.798L130.835 182.071L129.447 193.367C129.447 193.367 149.081 196.908 158.758 196.901C159.746 196.897 160.649 196.748 161.474 196.494C161.769 196.228 162.058 195.952 162.33 195.654C166.436 191.167 165.25 184.576 161.211 180.747Z" fill="#032E42"/>
<path d="M126.006 192.538C125.865 187.328 126.877 182.482 129.041 177.995C129.103 177.788 129.176 177.592 129.242 177.388C126.556 176.556 123.087 175.429 118.529 173.883C85.1309 162.446 59.6526 150.899 35.3359 137.603C25.8889 132.44 15.1481 135.901 12.1244 147.085C9.42477 157.072 15.3527 165.594 24.3502 168.59C51.2674 177.552 99.0317 191.855 126.062 193.669C126.042 193.291 126.018 192.913 126.006 192.538Z" fill="#032E42"/>
<path d="M87.7822 56.4142C87.7822 56.4142 91.3739 71.9858 108.813 71.6623C126.574 71.3423 128.158 56.3596 128.158 56.3596L116.555 53.8765L115.586 40.9407L98.1328 42.235L97.8101 54.5236L87.7822 56.4142Z" fill="#FFBE9D"/>
<path d="M28.2521 131.102C28.2521 131.102 24.8101 131.488 22.8379 130.637C20.8657 129.786 13.1014 129.063 11.4587 126.743C11.4587 126.743 9.56099 129.739 12.3122 130.855C15.0635 131.975 19.2662 133.942 16.2737 136.574C13.2809 139.206 11.9456 137.003 12.1291 133.931C12.3122 130.855 11.4969 131.062 10.0057 130.655C10.0057 130.655 6.64333 135.705 10.8367 138.716C10.8367 138.716 -0.659129 136.687 0.02977 141.279L10.8138 141.322C10.8138 141.322 -0.285613 143.722 2.27269 147.943L11.9303 144.667C11.9303 144.667 5.9915 146.75 7.2592 149.655C7.2592 149.655 25.6716 140.148 29.0649 139.395C32.4578 138.646 28.2521 131.102 28.2521 131.102Z" fill="#FFBE9D"/>
<path d="M59.0241 93.9419C59.0241 93.9419 45.6676 123.486 28.2522 131.102L29.065 139.395C29.065 139.395 54.9056 138.45 73.3565 102.351C73.3565 102.351 68.4143 90.9752 59.0241 93.9419Z" fill="#FFBE9D"/>
<path d="M191.011 131.102C191.011 131.102 194.456 131.488 196.425 130.637C198.398 129.786 206.163 129.063 207.805 126.743C207.805 126.743 209.705 129.739 206.951 130.855C204.201 131.975 199.997 133.942 202.991 136.574C205.985 139.206 207.318 137.003 207.137 133.931C206.951 130.855 207.769 131.062 209.258 130.655C209.258 130.655 212.623 135.705 208.426 138.716C208.426 138.716 219.923 136.687 219.236 141.279L208.452 141.322C208.452 141.322 219.552 143.722 216.99 147.943L207.333 144.667C207.333 144.667 213.273 146.75 212.005 149.655C212.005 149.655 193.595 140.148 190.201 139.395C186.807 138.646 191.011 131.102 191.011 131.102Z" fill="#FFBE9D"/>
<path d="M160.241 93.9419C160.241 93.9419 173.598 123.486 191.012 131.102L190.202 139.395C190.202 139.395 164.36 138.45 145.909 102.351C145.909 102.351 150.851 90.9752 160.241 93.9419Z" fill="#FFBE9D"/>
<path d="M94.7866 13.7438C94.7866 13.7438 87.119 45.2344 106.612 50.1898C120.361 53.6837 125.296 27.317 121.965 20.7782C116.816 10.6691 114.487 12.2485 114.487 12.2485L94.7866 13.7438Z" fill="#FFBE9D"/>
<path d="M92.8967 26.3991C93.1877 27.1499 94.2989 26.9746 94.3388 26.1704C94.5775 21.3724 95.5898 14.105 99.6425 17.3052C104.987 21.5255 111.085 20.141 114.556 17.9738C116.431 16.8027 118.912 17.4844 119.796 19.5113C120.478 21.0746 120.947 23.7374 121.198 26.29C121.293 27.2469 122.59 27.4625 122.989 26.5878L123.623 25.2001C123.638 25.1688 123.645 25.1346 123.645 25.1001V23.2342C123.645 23.1154 123.731 23.0161 123.848 22.9972C124.497 22.8932 126.4 22.3762 125.177 19.9578C125.12 19.8454 125.158 19.7036 125.264 19.6374C125.738 19.3433 126.798 18.3519 125.66 15.7487C125.616 15.6473 125.643 15.5266 125.734 15.4633C126.612 14.8565 130.81 11.6073 128.249 6.49696C125.778 1.56514 122.3 3.35645 121.42 3.91925C121.304 3.99342 121.16 3.95816 121.092 3.83891C120.657 3.07287 119.03 0.678761 116.305 1.96434C115.371 2.40535 113.896 2.20431 113.049 1.61169C111.955 0.846012 110.41 0.30175 108.79 1.45863C107.505 2.37664 105.738 2.40499 104.512 1.40771C102.807 0.0206985 100.076 -0.936945 96.2703 1.48806C90.1422 5.39316 91.2337 10.6057 91.6123 11.8723C91.6541 12.013 91.5593 12.157 91.4132 12.1723C90.7548 12.2428 89.2146 12.6442 89.1459 14.859C89.062 17.5615 91.4902 21.8065 91.6941 22.1577C91.7042 22.1752 91.7104 22.1915 91.7158 22.2108L92.8894 26.3777C92.8916 26.3849 92.8938 26.3922 92.8967 26.3991Z" fill="#032E42"/>
</svg>
