<svg width="179" height="203" viewBox="0 0 179 203" fill="none" xmlns="http://www.w3.org/2000/svg">
<path d="M0 133.292C18.545 119.383 51.6749 85.159 65.6802 69.5438L129.429 55.0555C127.497 104.799 84.9979 170.962 80.1685 162.269C75.3391 153.576 53.6066 139.088 37.1866 143.917C24.0505 147.781 6.92218 138.444 0 133.292Z" fill="#0D455F"/>
<path d="M100.634 172.242C100.634 172.242 93.5357 174.243 87.0344 181.217C83.5487 184.959 78.936 188.932 77.4838 187.613C76.7855 186.976 75.7459 182.338 80.4756 178.201C85.0148 174.235 82.9237 167.403 87.6713 165.909C90.915 164.887 91.2642 168.252 98.7952 164.163L100.634 172.242Z" fill="#032E42"/>
<path d="M138.026 140.719C137.616 152.115 98.1354 176.65 98.1354 176.65C98.1354 176.65 93.866 174.222 94.0049 164.983C94.0049 164.983 106.841 146.857 114.763 140.662C116.028 139.672 116.026 137.757 112.658 135.329H112.656C111.686 134.63 110.44 133.888 108.861 133.115C108.861 133.115 93.8462 125.818 84.6249 119.705C82.875 118.545 81.3355 117.428 80.1471 116.414C79.7186 116.049 97.2268 95.8565 97.2268 95.8565L108.055 92.103C108.055 92.103 112.094 98.9237 115.215 103.457C117.866 107.308 138.463 128.546 138.026 140.719Z" fill="#032E42"/>
<path d="M119.902 39.1301C119.902 39.1301 149.053 30.9028 153.311 29.0359C157.566 27.167 171.367 9.12125 171.367 9.12125L175.378 11.4643C175.378 11.4643 171.053 28.3217 158.582 37.0073C153.712 40.3978 126.314 51.1467 126.314 51.1467L119.902 39.1301Z" fill="#FFBE9D"/>
<path d="M23.5065 182.79C23.5065 182.79 18.7684 187.797 16.8478 192.537C14.9272 197.279 12.1134 202.673 10.2806 201.971C9.39737 201.633 6.7409 197.691 9.6408 192.118C12.4227 186.77 7.98898 181.169 11.8668 178.048C14.5161 175.916 16.0654 178.921 21.5922 172.372L23.5065 182.79Z" fill="#032E42"/>
<path d="M109.697 96.3305C109.697 96.3305 78.4678 135.975 64.7906 148.236C57.5282 154.745 23.0756 183.544 23.0756 183.544C23.0756 183.544 20.7105 181.205 19.9854 179.173C18.5596 175.178 19.758 172.736 19.758 172.736C19.758 172.736 36.8456 141.941 48.2641 130.45C57.6153 121.04 63.9375 94.4458 84.6735 82.2546C105.409 70.0634 109.697 96.3305 109.697 96.3305Z" fill="#032E42"/>
<path d="M125.532 76.6482C117.945 97.5429 115.439 103.876 111.476 104.465C80.3895 109.077 71.0273 102.86 68.2498 97.8623C67.5158 96.5371 69.3112 93.0275 71.4737 90.4405C71.4737 90.4405 71.4737 90.4405 71.4757 90.4385C73.8048 85.8794 80.7605 80.257 84.3633 74.452C86.7043 70.6825 88.4184 67.3991 89.6703 64.5383C95.7907 50.5417 90.809 46.6235 93.7829 44.7804C98.9927 41.5546 123.292 34.458 130.952 37.0729C134.701 38.3545 129.906 46.0819 130.253 52.4463C130.688 60.4395 128.323 68.9645 125.532 76.6482Z" fill="#2B6684"/>
<path d="M137.443 44.4194C136.433 47.304 134.289 50.7044 130.321 54.1743L119.76 37.2733C119.76 37.2733 130.833 35.4738 136.963 34.2101C136.963 34.2101 139.55 38.4001 137.443 44.4194Z" fill="#2B6684"/>
<path d="M109.357 39.2472C109.357 39.2472 98.8125 40.7569 90.7716 45.3219C87.4366 47.2126 78.8442 54.7535 78.8442 54.7535C78.8442 54.7535 81.2428 62.596 91.1029 64.9569C100.963 67.3157 98.8601 48.3931 98.8601 48.3931L109.357 39.2472Z" fill="#2B6684"/>
<path d="M171.235 9.29774C171.235 9.29774 172.819 -0.115981 174.818 0.00107098C176.82 0.118122 178.332 3.26464 178.6 5.04223C178.868 6.81982 175.247 11.6407 175.247 11.6407L171.235 9.29774Z" fill="#FFBE9D"/>
<path d="M92.3266 45.804C92.3266 45.804 70.1741 61.0009 65.3373 68.9465C60.5005 76.8941 53.426 95.4478 53.426 95.4478C53.426 95.4478 53.6802 96.6401 57.876 95.9338C57.876 95.9338 71.7335 75.1244 73.9158 73.0334C76.0981 70.9423 95.4017 60.3442 95.4017 60.3442L92.3266 45.804Z" fill="#FFBE9D"/>
<path d="M58.372 96.7452C58.372 96.7452 59.1378 101.062 58.4573 102.802C57.7772 104.542 55.8192 105.917 54.4688 105.808C53.1185 105.699 55.4042 102.53 54.5339 100.739C53.6635 98.9474 52.1299 95.1462 54.6658 94.2356C57.2016 93.325 58.372 96.7452 58.372 96.7452Z" fill="#FFBE9D"/>
<path d="M57.8789 95.2931C57.8789 95.2931 58.8717 98.0647 59.4391 99.0051C60.0065 99.9474 57.8172 98.5468 57.2772 97.6619C56.737 96.7751 57.8789 95.2931 57.8789 95.2931Z" fill="#FFBE9D"/>
<path d="M104.185 40.1757C105.086 37.8684 105.85 34.4461 105.963 30.1331L106.584 30.2759L117.055 32.6725C117.055 32.6725 116.717 35.9797 116.618 39.1004C116.618 39.1282 116.616 39.154 116.616 39.1798C116.281 48.7859 103.437 42.0902 104.185 40.1757Z" fill="#FFBE9D"/>
<path d="M121.526 31.7837C121.526 31.7837 108.803 37.3228 105.486 29.4784C102.169 21.636 98.2945 17.067 106.278 13.1983C114.259 9.32966 117.114 11.6608 118.868 14.0078C120.624 16.3567 124.75 30.141 121.526 31.7837Z" fill="#FFBE9D"/>
<path d="M96.5804 14.6187C96.4256 14.5115 96.1181 14.4699 95.4912 14.5929C95.4912 14.5929 95.9078 14.1584 96.5645 13.9739C96.4752 13.0811 96.5467 11.4444 97.9334 10.6984C97.9334 10.6984 97.245 11.3234 97.3739 12.2638C98.6417 10.0695 101.991 7.85548 112.366 6.0759C126.042 3.73288 123.802 13.4382 122.326 14.9024C120.85 16.3665 115.769 14.6683 112.601 15.7455C109.432 16.8228 110.002 21.6517 109.067 22.5722C108.133 23.4908 108.278 22.2488 106.623 21.9532C104.968 21.6596 105.451 24.1554 106.286 25.6453C107.119 27.1352 105.615 29.762 105.615 29.762C105.615 29.762 105.615 29.762 102.99 28.0657C100.368 26.3695 96.0388 17.4596 96.4673 15.2178C96.505 15.0214 96.5427 14.821 96.5804 14.6187Z" fill="#2B6684"/>
</svg>
