<svg width="176" height="213" viewBox="0 0 176 213" fill="none" xmlns="http://www.w3.org/2000/svg">
<circle r="31.6082" transform="matrix(-1 0 0 1 31.6083 31.6082)" fill="#2B6684"/>
<circle r="28.4474" transform="matrix(-1 0 0 1 31.6082 31.6083)" fill="#2B6684"/>
<path d="M30.7358 38.1056H28.0991L22.9663 29.6857V38.1056H20.3296V25.3087H22.9663L28.1079 33.7462V25.3087H30.7358V38.1056ZM43.5503 31.9972C43.5503 33.257 43.3276 34.3615 42.8823 35.3107C42.437 36.2599 41.7983 36.9923 40.9663 37.5079C40.1401 38.0236 39.1909 38.2814 38.1187 38.2814C37.0581 38.2814 36.1118 38.0265 35.2798 37.5167C34.4478 37.007 33.8032 36.2804 33.3462 35.337C32.8892 34.3878 32.6577 33.298 32.6519 32.0675V31.4347C32.6519 30.1749 32.8774 29.0675 33.3286 28.1124C33.7856 27.1515 34.4272 26.4161 35.2534 25.9064C36.0854 25.3907 37.0347 25.1329 38.1011 25.1329C39.1675 25.1329 40.1138 25.3907 40.9399 25.9064C41.772 26.4161 42.4136 27.1515 42.8647 28.1124C43.3218 29.0675 43.5503 30.172 43.5503 31.4259V31.9972ZM40.8784 31.4171C40.8784 30.0753 40.6382 29.0558 40.1577 28.3585C39.6772 27.6613 38.9917 27.3126 38.1011 27.3126C37.2163 27.3126 36.5337 27.6583 36.0532 28.3497C35.5728 29.0353 35.3296 30.0431 35.3237 31.3732V31.9972C35.3237 33.3038 35.564 34.3175 36.0444 35.0382C36.5249 35.7589 37.2163 36.1193 38.1187 36.1193C39.0034 36.1193 39.6831 35.7736 40.1577 35.0822C40.6323 34.3849 40.8726 33.3712 40.8784 32.0411V31.4171Z" fill="#98C1C5"/>
<path d="M27.3936 63.2164L37.582 62.2532C37.9929 58.9449 40.5637 55.6787 40.4162 57.3434C40.2687 59.0081 40.2898 67.6477 40.2898 67.6477L54.9138 99.2559C56.8946 104.261 60.9826 107.442 64.0486 108.212L77.9668 112.542L72.3195 130.948L52.9752 124.311C50.4979 123.461 48.2543 122.043 46.4245 120.169C44.5947 118.295 43.2298 116.019 42.4391 113.522L29.5008 72.6312C28.6242 69.9967 27.9203 67.3078 27.3936 64.5817C27.0837 62.1398 27.3151 65.6767 27.3936 63.2164Z" fill="#FFBE9D"/>
<path d="M137.175 177.138C140.157 172.657 140.44 167.484 139.324 164.527L134.947 150.624L153.289 144.77L158.864 164.446C159.578 166.966 159.692 169.618 159.196 172.19C158.7 174.761 157.607 177.18 156.007 179.253L133.278 206.204L120.112 206.204L137.175 177.138Z" fill="#FFBE9D"/>
<path d="M145.493 123.577C146.662 124.736 160.148 159.81 160.148 159.81L136.347 163.793L135.062 152.54L132.224 179.64C132.224 179.64 135.936 198.605 135.062 205.98C124.215 207.919 96.0603 209.703 70.223 201.333L71.2028 198.794C72.2587 196.067 73.5087 193.419 74.9431 190.871L80.5974 169.104L82.6345 139.476L58.9494 131.489L66.746 106.108C79.1786 109.353 100.577 113.989 100.577 113.989L128.087 116.201C128.087 116.201 138.191 116.423 145.493 123.577Z" fill="#0D455F"/>
<path d="M132.482 116.595C132.482 116.595 127.916 130.296 112.255 128.51C96.3035 126.7 96.1633 113.085 96.1633 113.085L106.814 111.846L108.795 100.292L124.385 102.952L123.622 114.035L132.482 116.595Z" fill="#FFBE9D"/>
<path d="M131.174 84.2885C131.174 84.2885 133.808 109.368 116.501 109.368C103.254 109.368 101.653 87.1894 105.21 81.5924C113.789 68.0918 129.594 73.2257 131.174 84.2885Z" fill="#FFBE9D"/>
<path d="M106.115 82.5312L128.743 83.603C131.231 93.4249 128.513 99.5897 126.842 101.444C130.17 102.446 134.627 100.407 136.439 99.262C141.848 85.2785 140.69 65.1826 118.063 64.1109C94.9034 63.0139 96.5965 94.2104 100.13 97.5422C102.958 100.208 106.487 100.656 107.899 100.547C103.829 97.4009 105.014 87.2256 106.115 82.5312Z" fill="#2B6684"/>
</svg>
