<svg width="63" height="63" viewBox="0 0 63 63" fill="none" xmlns="http://www.w3.org/2000/svg">
<path d="M31.1576 0.00292969C13.6053 0.00292969 0.00268555 12.8309 0.00268555 30.1576C0.00268555 39.2202 3.72674 47.0519 9.78852 52.4618C10.8352 53.4032 10.6196 53.9485 10.7976 59.7608C10.8116 60.1679 10.925 60.5654 11.1279 60.9187C11.3308 61.2719 11.6171 61.5701 11.9617 61.7873C12.3064 62.0045 12.6989 62.1341 13.1051 62.1647C13.5114 62.1954 13.9189 62.1262 14.2922 61.9631C20.9243 59.0426 21.0096 58.8119 22.1339 59.1178C41.3484 64.4062 62.1747 52.1096 62.1747 30.1576C62.1747 12.8309 48.7112 0.00292969 31.1576 0.00292969ZM49.8644 23.2084L40.7141 37.6947C40.3686 38.2395 39.9142 38.707 39.3796 39.0679C38.8449 39.4288 38.2415 39.6755 37.6071 39.7923C36.9727 39.9092 36.321 39.8937 35.6928 39.747C35.0647 39.6002 34.4736 39.3253 33.9566 38.9394L26.6765 33.4906C26.351 33.2465 25.9552 33.1146 25.5484 33.1146C25.1416 33.1146 24.7457 33.2465 24.4203 33.4906L14.5968 40.9412C13.2857 41.9352 11.5684 40.3646 12.4521 38.977L21.6025 24.4907C21.9479 23.9458 22.4021 23.4782 22.9368 23.1171C23.4714 22.7561 24.0749 22.5094 24.7093 22.3925C25.3438 22.2756 25.9956 22.2911 26.6238 22.438C27.252 22.5849 27.843 22.86 28.3599 23.246L35.6375 28.6936C35.963 28.9377 36.3588 29.0696 36.7657 29.0696C37.1725 29.0696 37.5683 28.9377 37.8938 28.6936L47.7222 21.2505C49.0309 20.2502 50.7481 21.8196 49.8644 23.2084Z" fill="#2C8EF7"/>
</svg>
