<svg width="65" height="65" viewBox="0 0 65 65" fill="none" xmlns="http://www.w3.org/2000/svg">
<g clip-path="url(#clip0_43_107)">
<path d="M32.5 0C14.9913 0 0.797852 14.3665 0.797852 32.0888C0.797852 49.8111 14.9913 64.1776 32.5 64.1776C50.0088 64.1776 64.2022 49.8111 64.2022 32.0888C64.2022 14.3665 50.0088 0 32.5 0Z" fill="#40B3E0"/>
<path d="M47.926 18.4587L42.2634 47.3559C42.2634 47.3559 41.4716 49.3599 39.2938 48.398L26.227 38.2579L21.4757 35.9335L13.4773 33.208C13.4773 33.208 12.2498 32.7672 12.131 31.8053C12.0121 30.8434 13.5169 30.3225 13.5169 30.3225L45.3123 17.6975C45.3123 17.6975 47.9257 16.5353 47.9257 18.4592" fill="white"/>
<path d="M25.2229 47.0311C25.2229 47.0311 24.8415 46.995 24.3659 45.4718C23.8911 43.9488 21.4756 35.9331 21.4756 35.9331L40.6797 23.589C40.6797 23.589 41.7885 22.9076 41.7489 23.589C41.7489 23.589 41.9468 23.7093 41.3526 24.2704C40.7589 24.8317 26.2668 38.0174 26.2668 38.0174" fill="#D2E5F1"/>
<path d="M31.2372 42.1459L26.069 46.9156C26.069 46.9156 25.6647 47.2259 25.2229 47.0314L26.2126 38.1719" fill="#B5CFE4"/>
</g>
<defs>
<clipPath id="clip0_43_107">
<rect width="63.4044" height="64.1776" fill="white" transform="translate(0.797852)"/>
</clipPath>
</defs>
</svg>
