<svg width="65" height="65" viewBox="0 0 65 65" fill="none" xmlns="http://www.w3.org/2000/svg">
<g clip-path="url(#clip0_43_112)">
<path d="M17.7853 54.9656L18.8344 55.4842C23.2065 58.0768 28.1028 59.2868 32.9994 59.2868C48.3882 59.2868 60.9791 46.8418 60.9791 31.6312C60.9791 24.3717 58.0061 17.2849 52.7601 12.0994C47.5138 6.91388 40.5187 3.97559 32.9994 3.97559C17.6105 3.97559 5.01944 16.4206 5.19443 31.8041C5.19443 36.9894 6.76828 42.0022 9.39129 46.3231L10.0907 47.3604L7.29299 57.5584L17.7853 54.9656Z" fill="#00E676"/>
<path d="M55.7327 9.33375C49.787 3.28421 41.568 0 33.174 0C15.3372 0 0.997494 14.3463 1.17223 31.8038C1.17223 37.335 2.74608 42.6935 5.36934 47.5331L0.82251 63.9536L17.7852 59.6324C22.5068 62.2253 27.7528 63.4352 32.9993 63.4352C50.6614 63.4352 65.0011 49.0887 65.0011 31.6314C65.0011 23.1617 61.6784 15.2106 55.733 9.33375H55.7327ZM33.174 58.077C28.4525 58.077 23.7309 56.8673 19.7088 54.4474L18.6596 53.9288L8.51705 56.5214L11.1401 46.6693L10.4406 45.632C2.74608 33.36 6.4185 17.1119 19.0093 9.50646C31.6002 1.90129 47.8634 5.53117 55.558 17.9762C63.2523 30.4212 59.5799 46.496 46.9893 54.1015C42.9669 56.6941 38.0706 58.0768 33.174 58.0768V58.077ZM48.5629 38.8911L46.6393 38.0268C46.6393 38.0268 43.8416 36.8169 42.0927 35.9526C41.9177 35.9526 41.743 35.7796 41.568 35.7796C41.0433 35.7796 40.6936 35.9526 40.3439 36.1255C40.3439 36.1255 40.1691 36.2983 37.7209 39.0638C37.5459 39.4095 37.1962 39.5825 36.8464 39.5825H36.6715C36.4967 39.5825 36.147 39.4095 35.972 39.2368L35.0976 38.8911C33.174 38.0268 31.4254 36.9896 30.0263 35.6069C29.6766 35.2613 29.1519 34.9156 28.8022 34.5699C27.5781 33.36 26.3539 31.977 25.4797 30.4214L25.3048 30.0758C25.13 29.9028 25.13 29.7301 24.955 29.3844C24.955 29.0388 24.955 28.6931 25.13 28.5201C25.13 28.5201 25.8295 27.6558 26.3539 27.1375C26.7039 26.7915 26.8786 26.2732 27.2283 25.9275C27.5781 25.4089 27.753 24.7175 27.578 24.1989C27.4033 23.3346 25.3048 18.6678 24.7803 17.6308C24.4303 17.1121 24.0809 16.9394 23.5562 16.7665H21.6326C21.2826 16.7665 20.9332 16.9394 20.5832 16.9394L20.4082 17.1121C20.0585 17.2851 19.7088 17.6308 19.3591 17.8035C19.0093 18.1494 18.8344 18.4948 18.4846 18.8407C17.2605 20.3963 16.5611 22.2976 16.5611 24.1989C16.5611 25.5816 16.9108 26.9645 17.4355 28.1745L17.6105 28.6931C19.1843 31.977 21.2826 34.9156 24.0809 37.5082L24.7803 38.1995C25.3048 38.7182 25.8295 39.0638 26.1792 39.5822C29.8516 42.6937 34.0485 44.9407 38.77 46.1506C39.2947 46.3233 39.9942 46.3233 40.5189 46.4963H42.2674C43.1419 46.4963 44.191 46.1506 44.8907 45.805C45.4152 45.4593 45.7649 45.4593 46.1146 45.1136L46.4646 44.7677C46.8143 44.422 47.164 44.2493 47.5137 43.9037C47.8634 43.558 48.2132 43.2123 48.3881 42.8664C48.7379 42.1751 48.9126 41.3108 49.0876 40.4468V39.2368C49.0876 39.2368 48.9126 39.0638 48.5629 38.8911V38.8911Z" fill="white"/>
</g>
<defs>
<clipPath id="clip0_43_112">
<rect width="64.1776" height="64.1776" fill="white" transform="translate(0.82251)"/>
</clipPath>
</defs>
</svg>
