<svg width="1920" height="1255" viewBox="0 0 1920 1255" fill="none" xmlns="http://www.w3.org/2000/svg">
  <rect y="898" width="1920" height="312" fill="#2B6684" />
  <g clip-path="url(#clip0_288_1271)">
    <path
      d="M1155.16 663.441C1154.26 662.586 1153.55 661.561 1153.05 660.426C1152.56 659.291 1152.29 658.069 1152.28 656.831C1152.26 655.594 1152.49 654.365 1152.96 653.217C1153.42 652.07 1154.11 651.026 1154.98 650.147C1155.99 649.083 1157.21 648.246 1158.56 647.689C1159.92 647.133 1161.38 646.871 1162.84 646.921C1162.72 645.461 1162.92 643.993 1163.42 642.615C1163.91 641.237 1164.69 639.98 1165.71 638.926C1166.55 638.016 1167.56 637.282 1168.69 636.767C1169.81 636.252 1171.03 635.967 1172.27 635.928C1173.51 635.889 1174.74 636.096 1175.9 636.539C1177.05 636.982 1178.11 637.651 1179 638.506C1185.68 644.891 1183.12 657.664 1182.79 665.993C1174.46 666.651 1161.84 669.83 1155.16 663.441Z"
      fill="white" />
  </g>
  <path fill-rule="evenodd" clip-rule="evenodd"
    d="M1134.59 643.823C1139.92 657.443 1152.36 688.768 1159.46 705.112C1166.57 721.456 1180.79 721.397 1187.01 719.324C1210.11 711.33 1259.68 693.21 1273.19 684.682C1286.69 676.155 1283.55 658.035 1280.3 650.041L1256.31 580.758C1245.65 580.047 1248.9 572.763 1251.86 569.21L1247.42 561.216C1234.63 559.084 1239.13 549.077 1242.98 544.34L1239.43 534.569C1221.66 531.726 1227.88 522.133 1233.21 517.692L1230.54 509.698C1212.06 508.987 1216.33 496.966 1220.77 491.045L1217.18 482.162C1175.22 443.79 1149.37 462.621 1141.69 476.833C1124.7 472.096 1091.82 476.122 1096.22 530.128C1097.15 536.164 1097.79 542.112 1098.16 547.004L1134.59 643.823ZM1118.59 448.409C1114.45 450.185 1117.16 457.088 1121.26 454.627C1125.7 451.962 1123.04 446.506 1118.59 448.409ZM1139.92 440.415C1137.25 441.481 1137.89 447.012 1141.69 445.744C1145.5 444.476 1144.36 438.638 1139.92 440.415Z"
    fill="#2B6684" />
  <path
    d="M1920 194.371C1913.19 182.231 1888.01 151.735 1841.81 126.864C1795.61 101.993 1775.29 61 1760.96 44.2569C1741.71 21.7547 1676.73 -16.4991 1570.83 10.5035C1547.9 16.3487 1507.39 22.3466 1460.66 10.5035C1255.95 -41.37 1173.98 111.468 1158.57 194.371C1151.47 244.112 1133.7 262.353 1084.83 288.525C1026.78 319.613 994.544 389.921 965.775 512.363C934.678 644.711 741.193 684.682 597.945 658.035C505.914 640.915 350.06 671.063 259.435 707.777C127.941 745.915 31.689 644.318 0 588.752C71.789 931.26 419.658 900.23 584.618 841.902C768.118 785.764 903.805 774.598 1004.61 786.673L1065.28 610.07C1072.1 592.601 1084.3 552.156 1078.61 530.128C1072.93 508.099 1076.24 500.815 1078.61 499.927C1076.39 496.153 1073.99 490.664 1072.82 484.827C1070.88 475.096 1072.39 464.398 1083.94 459.068C1107.04 448.409 1162.13 424.426 1169.24 424.426C1170.36 424.426 1171.72 424.272 1173.25 424.099C1180.2 423.311 1190.59 422.134 1197.22 433.309C1198.39 435.273 1199.44 437.618 1200.33 440.415L1217.18 482.162L1220.77 491.045C1231.43 475.945 1253.64 510.586 1230.54 509.698L1233.21 517.692C1242.09 505.257 1261.64 538.122 1239.43 534.569L1242.98 544.34C1255.42 534.569 1263.42 563.881 1247.42 561.216L1251.86 569.21C1258.97 562.104 1269.63 581.646 1256.31 580.758L1280.3 650.041C1283.55 658.035 1286.69 676.155 1273.19 684.682C1259.68 693.21 1210.11 711.33 1187.01 719.324C1180.79 721.397 1166.57 721.456 1159.46 705.112C1152.36 688.768 1139.92 657.443 1134.59 643.823C1108.29 692.144 1099.34 772.708 1098.16 806.95C1131.09 817.793 1158.6 831.423 1181.68 846.205C1259.15 895.837 1346.64 866.885 1380.69 846.205C1452.13 792.437 1501.44 739.755 1534.48 690.012C1559.44 491.045 1500.64 487.492 1466.88 480.386C1433.11 473.28 1380.69 520.357 1358.48 522.133C1336.27 523.91 1328.27 505.257 1331.83 487.492C1334.67 473.28 1327.09 458.476 1322.94 452.85C1305.17 442.902 1315.54 429.756 1322.94 424.426C1303.04 427.979 1300.43 419.393 1301.62 414.656C1305.88 408.26 1299.84 401.924 1296.29 399.555C1263.59 398.845 1269.63 381.494 1276.74 372.908C1284.74 363.729 1298.24 334.003 1288.29 288.525C1278.34 243.046 1284.15 206.806 1288.29 194.371C1304.88 200.292 1351.91 208.582 1407.35 194.371C1462.79 180.159 1485.53 239.375 1489.98 270.76C1492.49 288.525 1501.92 332.08 1530.85 353.367C1557.41 372.908 1654.04 510.011 1534.48 690.012C1501.44 739.755 1452.13 792.437 1380.69 846.205C1346.64 866.885 1259.15 895.837 1181.68 846.205C1158.6 831.423 1131.09 817.793 1098.16 806.95C1070.88 797.967 1039.88 790.897 1004.61 786.673C903.805 774.598 768.118 785.764 584.618 841.902C419.658 900.23 71.789 931.26 0 588.752V960.5H1920V194.371Z"
    fill="#2B6684" />
  <path fill-rule="evenodd" clip-rule="evenodd"
    d="M1134.59 643.823C1139.92 657.443 1152.36 688.768 1159.46 705.112C1166.57 721.456 1180.79 721.397 1187.01 719.324C1210.11 711.33 1259.68 693.21 1273.19 684.682C1286.69 676.155 1283.55 658.035 1280.3 650.041L1256.31 580.758C1245.65 580.047 1248.9 572.763 1251.86 569.21L1247.42 561.216C1234.63 559.084 1239.13 549.077 1242.98 544.34L1239.43 534.569C1221.66 531.726 1227.88 522.133 1233.21 517.692L1230.54 509.698C1212.06 508.987 1216.33 496.966 1220.77 491.045L1217.18 482.162C1175.22 443.79 1149.37 462.621 1141.69 476.833C1124.7 472.096 1091.82 476.122 1096.22 530.128C1097.15 536.164 1097.79 542.112 1098.16 547.004L1134.59 643.823ZM1118.59 448.409C1114.45 450.185 1117.16 457.088 1121.26 454.627C1125.7 451.962 1123.04 446.506 1118.59 448.409ZM1139.92 440.415C1137.25 441.481 1137.89 447.012 1141.69 445.744C1145.5 444.476 1144.36 438.638 1139.92 440.415Z"
    fill="white" />
  <path
    d="M1407.35 194.371C1351.91 208.582 1304.88 200.292 1288.29 194.371C1284.15 206.806 1278.34 243.046 1288.29 288.525C1298.24 334.003 1284.74 363.729 1276.74 372.908C1269.63 381.494 1263.59 398.845 1296.29 399.555C1299.84 401.924 1305.88 408.26 1301.62 414.656C1300.43 419.393 1303.04 427.979 1322.94 424.426C1315.54 429.756 1305.17 442.902 1322.94 452.85C1327.09 458.476 1334.67 473.28 1331.83 487.492C1328.27 505.257 1336.27 523.91 1358.48 522.133C1380.69 520.357 1433.11 473.28 1466.88 480.386C1500.64 487.492 1559.44 491.045 1534.48 690.012C1654.04 510.011 1557.41 372.908 1530.85 353.367C1501.92 332.08 1492.49 288.525 1489.98 270.76C1485.53 239.375 1462.79 180.159 1407.35 194.371Z"
    fill="white" />
  <path
    d="M1078.61 499.927C1076.24 500.815 1072.93 508.099 1078.61 530.128C1084.3 552.156 1072.1 592.601 1065.28 610.07L1004.61 786.673C1039.88 790.897 1070.88 797.967 1098.16 806.95C1099.34 772.708 1108.29 692.144 1134.59 643.823L1098.16 547.004C1097.79 542.112 1097.15 536.164 1096.22 530.128C1093.36 511.69 1087.71 492.432 1078.61 499.927Z"
    fill="white" />
  <path fill-rule="evenodd" clip-rule="evenodd"
    d="M1118.59 448.409C1114.45 450.185 1117.16 457.088 1121.26 454.627C1125.7 451.962 1123.04 446.506 1118.59 448.409ZM1139.92 440.415C1137.25 441.481 1137.89 447.012 1141.69 445.744C1145.5 444.476 1144.36 438.638 1139.92 440.415ZM1166.57 574.54C1171.31 575.724 1182.03 575.783 1187.01 566.546C1187.6 574.54 1184.34 587.331 1166.57 574.54Z"
    fill="#98C1C5" />
  <path fill-rule="evenodd" clip-rule="evenodd"
    d="M1266.46 610.07C1255.38 603.726 1223.29 607.426 1208.63 610.07C1209.84 611.536 1210.96 612.736 1211.88 613.623L1206.55 638.494L1179.9 623.393C1179.9 621.57 1179.77 619.767 1179.54 618C1168.11 627.058 1144.18 647.606 1139.92 657.337C1145.98 672.607 1154.19 692.984 1159.46 705.112C1166.57 721.456 1180.79 721.397 1187.01 719.324C1210.11 711.33 1259.68 693.21 1273.19 684.682C1286.69 676.155 1283.55 658.035 1280.3 650.041L1266.46 610.07Z"
    fill="#98C1C5" />
  <path
    d="M1230.54 509.698C1212.06 508.987 1216.33 496.966 1220.77 491.045L1217.18 482.162C1175.22 443.79 1149.37 462.621 1141.69 476.833C1124.7 472.096 1091.82 476.122 1096.22 530.128C1097.15 536.164 1097.79 542.112 1098.16 547.004L1124.5 613.623C1144.91 623.393 1172.59 617.38 1177.82 610.07C1175.26 601.577 1170.94 594.69 1168.35 591.531C1153.57 583.019 1136.1 564.713 1126.59 553.222C1123.92 547.893 1122.86 534.036 1139.92 521.245C1152.34 511.93 1153.27 509.116 1153.88 507.245C1154.11 506.547 1154.3 505.981 1155.02 505.257C1155.82 505.523 1156.81 505.87 1157.94 506.267L1157.95 506.269C1164.35 508.515 1175.32 512.363 1182.56 512.363C1191.09 512.363 1200.33 517.692 1200.33 526.575C1200.33 527.662 1200.34 528.805 1200.34 529.996V529.998C1200.37 544.765 1200.42 566.91 1195.89 581.482C1196.54 588.278 1198.97 594.653 1201.87 600C1214.09 598.619 1240.31 588.929 1247.42 561.216C1234.63 559.084 1239.13 549.077 1242.98 544.34L1239.43 534.569C1221.66 531.726 1227.88 522.133 1233.21 517.692L1230.54 509.698Z"
    fill="#98C1C5" />
  <path fill-rule="evenodd" clip-rule="evenodd"
    d="M1118.59 448.409C1114.45 450.185 1117.16 457.088 1121.26 454.627C1125.7 451.962 1123.04 446.506 1118.59 448.409ZM1139.92 440.415C1137.25 441.481 1137.89 447.012 1141.69 445.744C1145.5 444.476 1144.36 438.638 1139.92 440.415ZM1166.57 574.54C1171.31 575.724 1182.03 575.783 1187.01 566.546C1187.6 574.54 1184.34 587.331 1166.57 574.54Z"
    fill="#032E42" />
  <path fill-rule="evenodd" clip-rule="evenodd"
    d="M1208.63 610.07C1223.29 607.426 1255.38 603.726 1266.46 610.07L1280.3 650.041C1283.55 658.035 1286.69 676.155 1273.19 684.682C1259.68 693.21 1210.11 711.33 1187.01 719.324C1180.79 721.397 1166.57 721.456 1159.46 705.112C1154.19 692.984 1145.98 672.607 1139.92 657.337C1144.18 647.606 1168.11 627.058 1179.54 618C1179.77 619.767 1179.9 621.57 1179.9 623.393L1206.55 638.494L1211.88 613.623C1210.96 612.736 1209.84 611.536 1208.63 610.07Z"
    fill="#032E42" />
  <path fill-rule="evenodd" clip-rule="evenodd"
    d="M1166.57 574.54C1171.31 575.724 1182.03 575.783 1187.01 566.546C1187.6 574.54 1184.34 587.331 1166.57 574.54Z"
    fill="#9D9D9D" />
  <path fill-rule="evenodd" clip-rule="evenodd"
    d="M1118.59 448.409C1114.45 450.185 1117.16 457.088 1121.26 454.627C1125.7 451.962 1123.04 446.506 1118.59 448.409ZM1139.92 440.415C1137.25 441.481 1137.89 447.012 1141.69 445.744C1145.5 444.476 1144.36 438.638 1139.92 440.415Z"
    fill="#9D9D9D" />
  <path
    d="M1118.59 448.409C1114.45 450.185 1117.16 457.088 1121.26 454.627C1125.7 451.962 1123.04 446.506 1118.59 448.409Z"
    fill="#9D9D9D" />
  <path
    d="M1139.92 440.415C1137.25 441.481 1137.89 447.012 1141.69 445.744C1145.5 444.476 1144.36 438.638 1139.92 440.415Z"
    fill="#9D9D9D" />
  <path fill-rule="evenodd" clip-rule="evenodd"
    d="M1083.94 459.068C1107.04 448.409 1162.02 426.499 1169.24 424.426C1176.45 422.354 1192.15 421.229 1197.22 433.309L1072.82 484.827C1070.88 475.096 1072.39 464.398 1083.94 459.068ZM1118.59 448.409C1114.45 450.185 1117.16 457.088 1121.26 454.627C1125.7 451.962 1123.04 446.506 1118.59 448.409ZM1139.92 440.415C1137.25 441.481 1137.89 447.012 1141.69 445.744C1145.5 444.476 1144.36 438.638 1139.92 440.415Z"
    fill="#9D9D9D" />
  <path
    d="M1098.16 547.004L1134.59 643.823C1139.92 657.443 1152.36 688.768 1159.46 705.112C1166.57 721.456 1180.79 721.397 1187.01 719.324C1210.11 711.33 1259.68 693.21 1273.19 684.682C1286.69 676.155 1283.55 658.035 1280.3 650.041L1256.31 580.758M1078.61 499.927C1076.39 496.153 1073.99 490.664 1072.82 484.827M1220.77 491.045L1217.18 482.162L1200.33 440.415C1199.44 437.618 1198.39 435.273 1197.22 433.309M1230.54 509.698L1233.21 517.692M1239.43 534.569L1242.98 544.339M1247.42 561.216L1251.86 569.21M1197.22 433.309L1072.82 484.827M1197.22 433.309C1192.15 421.229 1176.45 422.354 1169.24 424.426C1162.02 426.499 1107.04 448.409 1083.94 459.068C1072.39 464.398 1070.88 475.096 1072.82 484.827M1118.59 448.409C1114.45 450.185 1117.16 457.088 1121.26 454.627C1125.7 451.962 1123.04 446.506 1118.59 448.409ZM1139.92 440.415C1137.25 441.481 1137.89 447.012 1141.69 445.744C1145.5 444.476 1144.36 438.638 1139.92 440.415ZM1166.57 574.54C1171.31 575.724 1182.03 575.783 1187.01 566.546C1187.6 574.54 1184.34 587.331 1166.57 574.54Z"
    stroke="#9D9D9D" stroke-width="5" />
  <path fill-rule="evenodd" clip-rule="evenodd"
    d="M1182.56 512.363C1191.09 512.363 1200.33 517.692 1200.33 526.575C1200.33 527.662 1200.34 528.805 1200.34 529.996C1200.37 544.764 1200.42 566.909 1195.89 581.482C1197.31 596.274 1207.14 609.073 1211.88 613.623L1206.55 638.494L1179.9 623.393C1179.9 609.181 1172.2 596.23 1168.35 591.531C1153.57 583.018 1136.1 564.713 1126.59 553.222C1123.92 547.892 1122.86 534.036 1139.92 521.245C1152.34 511.93 1153.27 509.116 1153.88 507.245C1154.11 506.547 1154.3 505.981 1155.02 505.257C1155.82 505.523 1156.81 505.87 1157.94 506.267L1157.95 506.268C1164.35 508.515 1175.32 512.363 1182.56 512.363Z"
    fill="#C6D6D4" />
  <path fill-rule="evenodd" clip-rule="evenodd"
    d="M1166.57 574.54C1171.31 575.724 1182.03 575.783 1187.01 566.546C1187.6 574.54 1184.34 587.331 1166.57 574.54Z"
    fill="#C6D6D4" />
  <path
    d="M1078.61 499.927C1087.71 492.432 1093.36 511.69 1096.22 530.128C1097.15 536.164 1097.79 542.112 1098.16 547.004C1098.37 550.488 1099.29 558.363 1101.29 562C1103.29 565.637 1123.13 619.849 1132.79 646.5M1139.92 541.675C1139.92 539.01 1143.47 531.016 1155.02 534.569M1172.79 530.128C1173.68 525.982 1177.77 518.936 1187.01 523.91M1168.35 543.451C1173.68 546.708 1184.34 551.445 1172.79 558.551M1168.35 591.531C1175.65 595.741 1182.3 597.556 1187.01 594.97C1191.09 592.726 1193.92 587.821 1195.89 581.482M1168.35 591.531C1153.57 583.018 1136.1 564.713 1126.59 553.222C1123.92 547.892 1122.86 534.036 1139.92 521.245C1152.34 511.93 1153.27 509.116 1153.88 507.245C1154.11 506.547 1154.3 505.981 1155.02 505.257C1155.82 505.523 1156.81 505.87 1157.94 506.267L1157.95 506.268C1164.35 508.515 1175.32 512.363 1182.56 512.363C1191.09 512.363 1200.33 517.692 1200.33 526.575C1200.33 527.662 1200.34 528.805 1200.34 529.996C1200.37 544.764 1200.42 566.909 1195.89 581.482M1168.35 591.531C1172.2 596.23 1179.9 609.181 1179.9 623.393L1206.55 638.494L1211.88 613.623C1207.14 609.073 1197.31 596.274 1195.89 581.482M1220.77 491.045C1212.86 501.589 1213.82 511.29 1230.54 509.698C1256.31 507.245 1228.68 480.5 1220.77 491.045ZM1234.32 518C1228.99 522.441 1221.43 534.569 1239.43 534.569C1258.83 534.569 1242.98 512.363 1234.32 518ZM1242.98 544.339C1239.13 549.077 1234.55 562.818 1247.42 561.216C1268.83 558.551 1251.86 537.5 1242.98 544.339ZM1253.83 569C1250.86 572.553 1246 583.584 1256.31 580.758C1271.83 576.5 1259.83 566.546 1253.83 569ZM1166.57 574.54C1171.31 575.724 1182.03 575.783 1187.01 566.546C1187.6 574.54 1184.34 587.331 1166.57 574.54Z"
    stroke="white" stroke-width="3" />
  <path fill-rule="evenodd" clip-rule="evenodd"
    d="M1182.93 512.752C1174.4 512.752 1160.72 507.422 1155.39 505.646C1152.73 508.31 1157.35 508.843 1140.29 521.634C1123.23 534.425 1124.29 548.281 1126.96 553.611C1136.47 565.102 1153.94 583.408 1168.72 591.92C1176.02 596.13 1182.67 597.945 1187.38 595.359C1191.46 593.115 1194.29 588.21 1196.26 581.871C1201.16 566.123 1200.7 541.531 1200.7 526.964C1200.7 518.081 1191.46 512.752 1182.93 512.752ZM1166.94 574.929C1171.68 576.113 1182.4 576.172 1187.38 566.935C1187.97 574.929 1184.71 587.72 1166.94 574.929Z"
    fill="white" />
  <path
    d="M1187.38 595.359C1182.67 597.945 1176.02 596.13 1168.72 591.92C1172.57 596.619 1180.27 609.57 1180.27 623.782L1206.92 638.883L1212.25 614.012C1207.52 609.462 1197.68 596.663 1196.26 581.871C1194.29 588.21 1191.46 593.115 1187.38 595.359Z"
    fill="white" />
  <path
    d="M1166.94 574.929C1171.68 576.113 1182.4 576.172 1187.38 566.935C1187.97 574.929 1184.71 587.72 1166.94 574.929Z"
    fill="white" />
  <path fill-rule="evenodd" clip-rule="evenodd"
    d="M1165.95 574.929C1170.69 576.113 1181.41 576.172 1186.39 566.935C1186.98 574.929 1183.72 587.72 1165.95 574.929Z"
    fill="#FCECE4" />
  <path
    d="M1165.95 574.929C1170.69 576.113 1181.41 576.172 1186.39 566.935C1186.98 574.929 1183.72 587.72 1165.95 574.929Z"
    fill="#FCECE4" />
  <path
    d="M1312.55 320.002C1316.4 314.081 1329.08 302.237 1348.98 302.237M1139.3 542.064C1139.3 539.399 1142.85 531.405 1154.4 534.958M1172.17 530.517C1173.06 526.371 1177.15 519.325 1186.39 524.299M1167.73 543.84C1173.06 547.097 1183.72 551.834 1172.17 558.94M1165.95 574.929C1170.69 576.113 1181.41 576.172 1186.39 566.935C1186.98 574.929 1183.72 587.72 1165.95 574.929Z"
    stroke="#2B6684" stroke-width="3" />
  <path d="M1311.34 429.877C1313.12 428.1 1329.11 424.547 1338 413" stroke="#2B6684" stroke-width="3" />
  <path d="M1164.3 592.003C1173.59 597.449 1182.04 599.798 1188.02 596.452C1193.2 593.549 1196.81 587.201 1199.31 579"
    stroke="#98C1C5" stroke-width="2" />
  <path
    d="M1840.54 347.187C1840.54 345.217 1840.92 343.266 1841.68 341.447C1842.44 339.629 1843.55 337.98 1844.96 336.597C1846.36 335.214 1848.03 334.124 1849.86 333.392C1851.68 332.659 1853.64 332.299 1855.61 332.331C1857.94 332.314 1860.25 332.792 1862.38 333.734C1864.52 334.676 1866.42 336.06 1867.98 337.795C1869.53 336.054 1871.43 334.661 1873.56 333.71C1875.69 332.759 1877.99 332.271 1880.33 332.279C1882.3 332.238 1884.25 332.591 1886.09 333.315C1887.92 334.04 1889.59 335.123 1891 336.5C1892.41 337.877 1893.53 339.522 1894.29 341.337C1895.06 343.152 1895.46 345.101 1895.46 347.071C1895.49 361.775 1878 372.913 1868.07 381.719C1858.13 372.881 1840.57 361.901 1840.54 347.187Z"
    fill="#98C1C5" />
  <g clip-path="url(#clip1_288_1271)">
    <path
      d="M1668.81 915.764C1669.61 914.18 1670.72 912.772 1672.07 911.622C1673.42 910.471 1674.99 909.601 1676.68 909.063C1678.37 908.525 1680.15 908.329 1681.92 908.487C1683.69 908.645 1685.41 909.153 1686.98 909.983C1688.85 910.919 1690.51 912.245 1691.84 913.87C1693.17 915.496 1694.13 917.386 1694.68 919.413C1696.63 918.647 1698.73 918.305 1700.82 918.409C1702.92 918.513 1704.97 919.062 1706.84 920.019C1708.44 920.79 1709.87 921.871 1711.04 923.2C1712.22 924.529 1713.11 926.079 1713.68 927.76C1714.25 929.44 1714.48 931.217 1714.36 932.987C1714.23 934.756 1713.75 936.483 1712.95 938.066C1706.98 949.884 1688.39 951.693 1676.83 954.715C1672.46 943.566 1662.84 927.59 1668.81 915.764Z"
      fill="#98C1C5" />
  </g>
  <g clip-path="url(#clip2_288_1271)">
    <path
      d="M543.868 742.066C543.361 740.653 543.141 739.153 543.22 737.654C543.3 736.155 543.678 734.687 544.332 733.336C544.985 731.984 545.902 730.777 547.028 729.784C548.154 728.79 549.466 728.032 550.889 727.551C552.558 726.943 554.337 726.697 556.108 726.829C557.88 726.96 559.603 727.466 561.164 728.314C561.831 726.668 562.84 725.183 564.125 723.956C565.409 722.73 566.94 721.79 568.615 721.2C570.019 720.668 571.515 720.42 573.016 720.472C574.516 720.525 575.992 720.875 577.355 721.504C578.719 722.132 579.943 723.026 580.957 724.134C581.971 725.241 582.754 726.539 583.26 727.952C587.041 738.499 577.331 750.963 572.458 759.82C563.064 756.015 547.651 752.62 543.868 742.066Z"
      fill="#98C1C5" />
  </g>
  <ellipse cx="1122.29" cy="454" rx="5.0013" ry="5" fill="#2B6684" />
  <ellipse cx="1143.3" cy="446" rx="5.0013" ry="5" fill="#2B6684" />
  <ellipse cx="1222.32" cy="676" rx="15.0039" ry="15" fill="#2B6684" />
  <path
    d="M1217 668.057L1217.35 667.707C1217.74 667.316 1218.37 667.316 1218.76 667.707L1221.14 670.082C1221.53 670.473 1221.53 671.106 1221.14 671.497L1219.48 673.157C1219.19 673.441 1219.12 673.873 1219.3 674.231C1220.34 676.302 1222.02 677.981 1224.09 679.016C1224.45 679.195 1224.88 679.125 1225.16 678.842L1226.82 677.181C1227.21 676.79 1227.85 676.79 1228.24 677.181L1230.61 679.556C1231 679.947 1231 680.58 1230.61 680.97L1230.26 681.322C1228.15 683.432 1224.81 683.67 1222.42 681.879L1221.63 681.287C1219.89 679.979 1218.34 678.431 1217.03 676.687L1216.44 675.901C1214.65 673.512 1214.88 670.168 1217 668.057Z"
    fill="white" />
  <path
    d="M473.623 1041.5C193.5 1041.5 27.5 851.5 0 770V1254.5H1920V819C1794 1123.5 1445.38 1222 1168.3 1206C919.189 1191.61 792.66 1041.5 473.623 1041.5Z"
    fill="#FDFDFD" />
  <defs>
    <clipPath id="clip0_288_1271">
      <rect width="41.4028" height="41.4033" fill="white"
        transform="matrix(0.691153 -0.722708 0.722888 0.690965 1142.3 655.922)" />
    </clipPath>
    <clipPath id="clip1_288_1271">
      <rect width="59.3442" height="59.3351" fill="white"
        transform="matrix(0.892534 0.450981 -0.451168 0.892439 1673.77 895)" />
    </clipPath>
    <clipPath id="clip2_288_1271">
      <rect width="50.2136" height="50.2035" fill="white"
        transform="matrix(0.9414 -0.337292 0.337448 0.941344 534 726.937)" />
    </clipPath>
  </defs>
</svg>