<svg width="19" height="19" viewBox="0 0 19 19" fill="none" xmlns="http://www.w3.org/2000/svg">
<path d="M12.0334 7.125H6.96675C5.27486 7.125 4.42891 7.125 3.86785 7.60419C3.78818 7.67223 3.71398 7.74643 3.64594 7.8261C3.16675 8.38716 3.16675 9.23311 3.16675 10.925C3.16675 13.4628 3.16675 14.7318 3.88553 15.5733C3.9876 15.6929 4.0989 15.8042 4.2184 15.9062C5.05999 16.625 6.32891 16.625 8.86675 16.625H10.1334C12.6713 16.625 13.9402 16.625 14.7818 15.9062C14.9013 15.8042 15.0126 15.6929 15.1146 15.5733C15.8334 14.7318 15.8334 13.4628 15.8334 10.925C15.8334 9.23311 15.8334 8.38716 15.3542 7.8261C15.2862 7.74643 15.212 7.67223 15.1323 7.60419C14.5713 7.125 13.7253 7.125 12.0334 7.125Z" stroke="#528C83" stroke-opacity="0.6" stroke-width="2"/>
<path d="M12.6668 6.33333V5.54167C12.6668 3.79276 11.2491 2.375 9.50016 2.375V2.375C7.75126 2.375 6.3335 3.79276 6.3335 5.54167V6.33333" stroke="#528C83" stroke-opacity="0.6" stroke-width="2" stroke-linecap="round"/>
<ellipse cx="9.50008" cy="11.875" rx="1.58333" ry="1.58333" fill="#528C83" fill-opacity="0.6"/>
</svg>
