<svg width="58" height="38" viewBox="0 0 58 38" fill="none" xmlns="http://www.w3.org/2000/svg">
<path fill-rule="evenodd" clip-rule="evenodd" d="M34.1434 34.1121C37.6936 31.2182 41.6105 28.0255 44.7408 24.4748C42.6666 24.7338 36.5757 23.8532 28.8059 18.259C21.0361 12.6647 12.2208 12.8201 8.78429 13.5971C10.0736 21.7577 18.1679 28.3744 24.9795 33.9425C26.6543 35.3116 28.2515 36.6172 29.651 37.8669C31.0017 36.673 32.5349 35.4232 34.1434 34.1121Z" fill="#98C1C5"/>
<path fill-rule="evenodd" clip-rule="evenodd" d="M9.49068 6.9652C8.90705 8.35729 8.60678 9.85181 8.60743 11.3614C8.60763 12.1193 8.66853 12.8645 8.78429 13.5971C12.2208 12.8201 21.0361 12.6647 28.8059 18.259C36.5757 23.8532 42.6666 24.7338 44.7408 24.4748C48.1885 20.5642 50.6821 16.2193 50.6808 11.3614C50.6807 9.85181 50.3797 8.35729 49.7953 6.9652C49.211 5.57311 48.355 4.31138 47.2775 3.25376C46.2 2.19614 44.9225 1.36384 43.5198 0.805504C42.117 0.247166 40.6171 -0.0260078 39.1077 0.00194809C37.3218 -0.00753601 35.5543 0.362653 33.9225 1.08798C32.2906 1.8133 30.8317 2.8772 29.6423 4.20916C28.4522 2.8772 26.9927 1.8133 25.3605 1.08798C23.7283 0.362653 21.9606 -0.00753601 20.1747 0.00194809C18.6653 -0.0260078 17.1655 0.247166 15.763 0.805504C14.3606 1.36384 13.0835 2.19614 12.0066 3.25376C10.9296 4.31138 10.0743 5.57311 9.49068 6.9652Z" fill="#2B6684"/>
<path d="M1.21334 17.1444C0.50798 17.5789 0.288368 18.5029 0.722827 19.2083C1.15729 19.9136 2.08129 20.1333 2.78666 19.6988L1.21334 17.1444ZM29.4842 18.4216L28.61 19.6406L29.4842 18.4216ZM56.8641 19.6477C57.5413 19.1705 57.7033 18.2347 57.2261 17.5575C56.7489 16.8804 55.8131 16.7183 55.1359 17.1955L56.8641 19.6477ZM2.78666 19.6988C5.97312 17.7361 9.25572 15.5531 13.3359 14.8995C17.3071 14.2634 22.2322 15.0666 28.61 19.6406L30.3584 17.2027C23.4712 12.2634 17.7621 11.1523 12.8614 11.9373C8.06968 12.7049 4.24271 15.2786 1.21334 17.1444L2.78666 19.6988ZM28.61 19.6406C34.9225 24.1677 40.3623 25.4189 45.1405 24.8246C49.8567 24.2379 53.7042 21.8746 56.8641 19.6477L55.1359 17.1955C52.0561 19.366 48.7165 21.3566 44.7702 21.8475C40.8858 22.3307 36.1876 21.3832 30.3584 17.2027L28.61 19.6406Z" fill="#2B6684"/>
</svg>
