<svg width="552" height="350" viewBox="0 0 552 350" fill="none" xmlns="http://www.w3.org/2000/svg">
<rect y="13.1792" width="547.328" height="335.614" rx="20" fill="#FDFDFD"/>
<circle cx="33.3811" cy="42.3496" r="14.1343" fill="#98C1C5"/>
<circle cx="71.8745" cy="42.3496" r="14.1343" fill="#2B6684" fill-opacity="0.45"/>
<rect x="96.2336" y="37.8384" width="192.467" height="9.62335" fill="#98C1C5"/>
<path fill-rule="evenodd" clip-rule="evenodd" d="M547.468 18.5159L508.496 1.81369C502.854 -0.604561 496.467 -0.604563 490.824 1.81368L451.852 18.5159C449.103 19.6942 447.32 22.3974 447.32 25.3885V64.665C447.32 79.1534 454.317 92.75 466.107 101.171L490.968 118.929C496.168 122.643 503.153 122.643 508.352 118.929L533.213 101.171C545.003 92.75 552 79.1534 552 64.665V25.3885C552 22.3974 550.217 19.6942 547.468 18.5159Z" fill="#98C1C5"/>
<path d="M486.253 65.6955L497.597 74.2039L523.123 43.0063" stroke="white" stroke-width="10"/>
<path d="M168.221 161.295C185.937 84.8953 242.038 71.3316 267.873 74.0997C299.707 70.2214 348.148 90.7084 371.676 161.295C385.02 201.325 393.022 279.534 396.187 346.849H147.611C148.492 284.56 154.188 221.813 168.221 161.295Z" fill="#032E42"/>
<path d="M177.424 261.119C188.578 253.441 200.91 247.654 213.984 244.101C218.894 242.763 245.409 250.472 261.8 250.089C284.299 249.576 307.202 239.331 325.747 243.95C344.17 248.549 359.247 254.548 367.953 260.747C394.012 279.295 408.149 315.153 417.473 349.4H129.708C127.091 343.352 145.96 282.767 177.424 261.119Z" fill="#2B6684"/>
<path d="M215.278 244.265C215.278 244.265 225.22 287.369 273.492 286.473C322.658 285.587 327.041 244.114 327.041 244.114L294.925 237.24L292.24 201.433L243.929 205.015L243.036 239.032L215.278 244.265Z" fill="#FFBE9D"/>
<path d="M233.373 125.985C233.373 125.985 212.148 213.154 266.106 226.871C304.165 236.542 317.827 163.557 308.607 145.456C294.352 117.474 287.907 121.845 287.907 121.845L233.373 125.985Z" fill="#FFBE9D"/>
<circle cx="274.051" cy="310.488" r="23.6452" fill="#C6DDDF"/>
<path d="M264.278 317.33H277.938C278.49 317.33 278.938 316.882 278.938 316.33V306.579C278.938 306.194 278.862 305.813 278.715 305.457C278.567 305.101 278.351 304.778 278.079 304.506C277.807 304.234 277.484 304.018 277.128 303.87C276.772 303.723 276.391 303.647 276.006 303.647H262.346C261.794 303.647 261.346 304.095 261.346 304.647V314.398C261.346 315.176 261.655 315.921 262.205 316.471C262.477 316.743 262.8 316.959 263.156 317.107C263.512 317.254 263.893 317.33 264.278 317.33Z" fill="white" fill-opacity="0.6"/>
<path d="M280.893 312.885C280.893 313.22 281.06 313.532 281.338 313.717L285.202 316.293C285.867 316.736 286.757 316.26 286.757 315.461V305.516C286.757 304.717 285.867 304.241 285.202 304.684L281.338 307.26C281.06 307.445 280.893 307.757 280.893 308.092V312.885Z" fill="white" fill-opacity="0.6"/>
<circle cx="214.357" cy="310.488" r="23.6452" fill="#C6DDDF"/>
<path d="M219.401 302.922C219.401 300.136 217.143 297.877 214.357 297.877C211.571 297.877 209.313 300.136 209.313 302.922V309.227C209.313 312.013 211.571 314.271 214.357 314.271C217.143 314.271 219.401 312.013 219.401 309.227V302.922Z" fill="white" fill-opacity="0.6"/>
<path d="M221.923 315.9C220.978 316.975 219.814 317.836 218.509 318.424C217.204 319.013 215.789 319.317 214.357 319.315C212.925 319.317 211.51 319.013 210.205 318.424C208.9 317.836 207.736 316.975 206.791 315.9" fill="white" fill-opacity="0.6"/>
<path d="M221.923 315.9C220.978 316.975 219.814 317.836 218.509 318.424C217.204 319.013 215.789 319.317 214.357 319.315C212.925 319.317 211.51 319.013 210.205 318.424C208.9 317.836 207.736 316.975 206.791 315.9" stroke="white" stroke-opacity="0.6" stroke-width="3" stroke-linecap="round" stroke-linejoin="round"/>
<path d="M214.357 319.316V323.099V319.316Z" fill="white" fill-opacity="0.6"/>
<path d="M214.357 319.316V323.099" stroke="white" stroke-opacity="0.6" stroke-width="3" stroke-linecap="round" stroke-linejoin="round"/>
<path d="M211.835 323.099H216.879H211.835Z" fill="white" fill-opacity="0.6"/>
<path d="M211.835 323.099H216.879" stroke="white" stroke-opacity="0.6" stroke-width="3" stroke-linecap="round" stroke-linejoin="round"/>
<circle cx="333.746" cy="310.488" r="23.6452" fill="#C6DDDF"/>
<path d="M333.562 309.113C331.309 309.101 329.078 309.582 327.028 310.523L326.608 314.151C326.59 314.252 326.541 314.346 326.468 314.418C326.395 314.491 326.302 314.54 326.201 314.559L320.031 315.905C319.803 315.962 319.565 315.965 319.336 315.915C319.107 315.864 318.892 315.761 318.71 315.613C318.528 315.466 318.383 315.277 318.287 315.064C318.19 314.85 318.144 314.616 318.154 314.381L318.182 310.888C318.186 310.388 318.313 309.896 318.553 309.456C318.794 309.016 319.139 308.642 319.558 308.367C323.731 305.619 328.589 304.096 333.577 303.975C338.532 303.934 343.387 305.332 347.553 307.999C347.967 308.265 348.305 308.634 348.534 309.07C348.763 309.506 348.876 309.994 348.861 310.488L348.79 314.067C348.792 314.295 348.743 314.522 348.646 314.729C348.549 314.936 348.406 315.119 348.229 315.264C348.051 315.408 347.843 315.511 347.621 315.564C347.398 315.617 347.167 315.619 346.944 315.57L340.747 314.376C340.646 314.362 340.552 314.315 340.48 314.242C340.408 314.17 340.361 314.077 340.346 313.975L340.021 310.354C337.988 309.466 335.782 309.042 333.562 309.113Z" fill="white" fill-opacity="0.6"/>
</svg>
