<svg width="35" height="36" viewBox="4 4 35 36" fill="none" xmlns="http://www.w3.org/2000/svg">
<path d="M29.1668 23.6663V17.833V4.70801H5.8335V23.6663H29.1668Z" fill="#98C1C5"/>
<path d="M29.1668 17.833V26.958C29.1668 28.8436 29.1668 29.7864 28.581 30.3722C27.9953 30.958 27.0524 30.958 25.1668 30.958H11.8335C9.00507 30.958 7.59086 30.958 6.71218 30.0793C5.8335 29.2006 5.8335 27.7864 5.8335 24.958V23.6663M29.1668 17.833V23.6663M29.1668 17.833V4.70801M5.8335 23.6663H29.1668M5.8335 23.6663V4.70801M29.1668 23.6663V4.70801M29.1668 4.70801H5.8335M5.8335 4.70801V27.3122" stroke="#2B6684" stroke-width="2"/>
<path d="M13.125 14.9167L15.3346 17.1262C15.7251 17.5168 16.3582 17.5168 16.7488 17.1262L21.875 12" stroke="#2B6684" stroke-width="2" stroke-linecap="round"/>
</svg>
