<svg width="22" height="21" viewBox="0 0 22 21" fill="none" xmlns="http://www.w3.org/2000/svg">
<path d="M7.51019e-05 18.705C7.51019e-05 18.6645 0.00647974 18.6261 0.0118742 18.587V9.50943H0.0122111L0.0118742 9.50639C0.0118742 9.39408 0.0340016 9.28287 0.0769916 9.17911C0.119982 9.07535 0.182993 8.98108 0.262425 8.90168C0.341857 8.82228 0.436153 8.75931 0.539928 8.71636C0.643703 8.67341 0.754924 8.65132 0.867235 8.65137C0.883082 8.65137 0.89758 8.65508 0.913089 8.65609H2.53109V8.66216C2.75225 8.66827 2.96239 8.76004 3.11719 8.91811C3.27198 9.07618 3.35934 9.28819 3.36083 9.50943H3.36353V18.7818H3.34903C3.32979 18.9879 3.23613 19.1798 3.08557 19.3217C2.93501 19.4637 2.73788 19.5459 2.53109 19.5529V19.5603H0.855097C0.383081 19.5603 7.51019e-05 19.1773 7.51019e-05 18.705Z" fill="#2B6684"/>
<path d="M5.05692 20.1271V7.82333L5.05659 7.8203C5.05659 7.70798 5.07871 7.59677 5.1217 7.49302C5.16469 7.38926 5.2277 7.29499 5.30713 7.21558C5.38657 7.13618 5.48086 7.07321 5.58464 7.03026C5.68842 6.98731 5.79963 6.96523 5.91194 6.96527C5.92745 6.96527 5.94229 6.96898 5.9578 6.96999H9.30642C9.35624 6.89025 9.41708 6.81795 9.48713 6.75523L12.8182 0.984828L12.8266 0.989885C13.1604 0.398853 13.7869 0 14.5057 0C15.5748 0 16.4416 0.879298 16.4416 1.96392H16.4612V6.96966H21.0748V6.97573C21.2959 6.98184 21.5061 7.07361 21.6609 7.23168C21.8157 7.38975 21.903 7.60176 21.9045 7.823H21.9072V17.3146H21.9052C21.9052 17.4235 21.8634 17.5324 21.7811 17.616L21.7821 17.617L18.4902 20.909L18.4821 20.9009C18.3873 20.9788 18.271 21.0081 18.156 20.9926H5.98376C5.95915 20.9946 5.93555 21 5.9106 21C5.69189 20.9997 5.48167 20.9153 5.32336 20.7644C5.16506 20.6135 5.07076 20.4076 5.05996 20.1891H5.05726V20.1628C5.05726 20.1568 5.05557 20.151 5.05557 20.145C5.05557 20.1389 5.05659 20.1332 5.05692 20.1271ZM20.8981 17.3146L20.884 17.3304L20.8998 17.3146H20.8981Z" fill="#2B6684"/>
</svg>
