<svg width="44" height="38" viewBox="0 0 44 38" fill="none" xmlns="http://www.w3.org/2000/svg">
<path d="M1.58325 5.5C1.58325 3.61438 1.58325 2.67157 2.16904 2.08579C2.75482 1.5 3.69763 1.5 5.58325 1.5H25.9598C26.881 1.5 27.3417 1.5 27.7448 1.68882C28.148 1.87764 28.4428 2.23152 29.0326 2.93926L40.2826 16.4393C41.303 17.6637 41.8132 18.2759 41.8132 19C41.8132 19.7241 41.303 20.3363 40.2826 21.5607L29.0326 35.0607C28.4428 35.7685 28.148 36.1224 27.7448 36.3112C27.3417 36.5 26.881 36.5 25.9598 36.5H5.58325C3.69763 36.5 2.75482 36.5 2.16904 35.9142C1.58325 35.3284 1.58325 34.3856 1.58325 32.5V5.5Z" fill="#D0E2E4" stroke="#D0E2E4" stroke-width="3"/>
</svg>
