<svg width="242" height="207" viewBox="0 0 242 207" fill="none" xmlns="http://www.w3.org/2000/svg">
<path d="M114.072 178.512C114.072 178.512 111.828 202.683 127.823 203.884C143.818 205.084 173.351 204.601 178.387 201.483C183.423 198.365 187.259 192.847 187.988 187.799C188.717 182.752 181.337 171.737 181.337 171.737L114.072 178.512Z" fill="#032E42"/>
<path d="M239.999 19.4622L240.908 14.8186C240.954 14.5622 240.947 14.2991 240.889 14.0453C240.83 13.7915 240.72 13.5523 240.566 13.3424C240.411 13.1325 240.216 12.9562 239.991 12.8243C239.766 12.6924 239.517 12.6077 239.259 12.5753L234.29 11.9359C234.29 11.9359 233.572 13.0575 234.144 13.9549C234.716 14.8522 238.115 15.3569 238.115 15.3569V19.9557L239.999 19.4622Z" fill="#FFBE9D"/>
<path d="M135.215 95.151C136.779 95.1289 138.322 94.7918 139.752 94.1597C141.182 93.5276 142.471 92.6136 143.54 91.4723C144.609 90.331 145.437 88.9858 145.974 87.5172C146.511 86.0486 146.747 84.4868 146.667 82.925C146.353 76.5877 145.994 70.1831 145.994 70.1831C145.994 70.1831 155.483 68.4333 155.337 58.9666C155.191 49.4999 152.926 27.5604 152.926 27.5604C147.446 25.3837 141.485 24.7101 135.658 25.6093C129.831 26.5085 124.349 28.9478 119.781 32.6751L118.401 33.7968L123.46 84.6748C123.752 87.5757 125.121 90.2615 127.298 92.2013C129.475 94.1411 132.3 95.1937 135.215 95.151Z" fill="#FFBE9D"/>
<path d="M240.134 14.5043L228.917 19.8658C228.48 16.3439 225.743 12.8667 225.9 14.6389C226.057 16.4111 226.035 25.6087 226.035 25.6087L210.466 59.2582C208.357 64.586 204.005 67.9734 200.741 68.7922L185.924 73.4021L191.936 92.9973L212.53 85.931C215.167 85.0265 217.556 83.5163 219.504 81.5216C221.452 79.5269 222.905 77.1033 223.746 74.4453L237.52 30.9141C238.453 28.1094 239.203 25.2469 239.763 22.3447C240.093 19.7451 240.217 17.1235 240.134 14.5043Z" fill="#FFBE9D"/>
<path d="M85.6267 127.948C85.6267 127.948 99.9838 90.6084 101.229 89.3746C109.002 81.7586 119.759 81.523 119.759 81.523L149.045 79.1675C149.045 79.1675 171.825 74.2323 185.061 70.7776L193.361 97.7981L168.146 106.3L168.483 137.706L176.335 161.014C177.862 163.727 179.192 166.546 180.316 169.449L181.359 172.152L113.634 178.882C112.703 171.031 120.016 150.549 120.016 150.549L112.333 120.209L110.965 132.188L85.6267 127.948Z" fill="#0D455F"/>
<path d="M148.271 19.0247C165.432 20.6735 158.837 43.185 163.121 50.0046C164.714 52.5283 167.339 54.4127 169.447 56.6336C171.556 58.8544 173.194 61.7595 172.274 64.5636C171.489 66.9976 168.909 69.1848 169.503 71.6188C169.851 72.9087 171.051 73.8621 171.96 74.9164C173.02 76.1916 173.753 77.7055 174.097 79.3274C174.441 80.9494 174.385 82.6306 173.934 84.2261C172.91 87.5543 170.966 90.5251 168.326 92.7955C160.654 99.9292 148.136 102.969 137.48 100.311C134.317 99.5254 131.065 98.2692 127.845 99.0207C125.871 99.4805 124.211 100.658 122.383 101.477C115.317 104.663 105.94 101.825 102.036 96.0595C98.1329 90.2942 99.3106 82.5997 103.865 76.9915C107.129 72.9648 112.176 69.297 112.109 64.4851C112.041 59.6732 106.814 55.4558 108.62 50.9244C109.742 47.9969 113.589 46.2022 114.733 43.2747C115.877 40.3472 113.915 37.0608 113.544 33.8865C113.04 29.6018 115.608 25.418 118.581 21.8512C122.338 17.3646 127.285 13.136 133.555 11.9246C139.825 10.7132 147.328 13.6968 148.226 19.0583" fill="#032E42"/>
<path d="M235.872 16.5346C236.062 16.4448 239.999 5.46387 240.504 4.43195C241.267 2.85043 241.345 5.2732 240.941 8.25678C240.605 10.7805 240.134 14.5044 240.134 14.5044L235.872 16.5346Z" fill="#FFBE9D"/>
<path d="M53.895 16.9944L51.3264 69.9811L74.0174 72.1234L75.2736 59.2581C75.2736 59.2581 83.271 61.2322 85.705 53.8293C87.2528 49.1072 88.6437 12.0591 88.6437 12.0591L53.895 16.9944Z" fill="#FFBE9D"/>
<path d="M90.5844 18.2506C91.2125 23.2083 84.2807 26.1022 84.2807 26.1022L83.0245 37.7673C81.9379 37.69 80.8471 37.69 79.7605 37.7673C80.355 32.26 73.2549 33.3368 72.5371 37.0943C71.8192 40.8519 75.902 43.1064 75.902 43.1064C73.0642 47.4696 71.9089 49.7578 67.8822 53.8406C63.5302 58.2599 61.1523 58.6188 56.6657 58.4842L51.708 58.2487C51.708 58.2487 49.947 54.02 48.6459 44.0149C48.029 39.2031 44.2715 32.8994 45.3371 25.0815C48.3767 2.85039 69.6768 5.19465 69.6768 5.19465C80.8036 5.50871 89.0814 6.74252 90.5844 18.2506Z" fill="#032E42"/>
<path d="M84.5496 25.7097C87.1422 24.8143 89.4765 23.2988 91.3493 21.2949C93.2222 19.2911 94.5767 16.8598 95.295 14.2128C95.9538 12.1879 95.8093 9.98736 94.8912 8.06612C93.8481 6.23783 91.3692 5.13862 89.5185 6.15932C89.5189 4.70543 89.0048 3.2983 88.0673 2.18706C87.1298 1.07583 85.8293 0.332148 84.3961 0.0876864C82.9629 -0.156775 81.4894 0.113739 80.2365 0.851358C78.9837 1.58898 78.0322 2.74612 77.5505 4.11791C76.8323 3.23726 75.8597 2.59982 74.7656 2.29266C73.6714 1.98551 72.5092 2.02362 71.4375 2.40179C70.3766 2.8099 69.417 3.4435 68.6249 4.2588C67.8329 5.07411 67.2273 6.05166 66.85 7.12392C66.1089 9.28639 65.92 11.5998 66.3004 13.8538" fill="#032E42"/>
<path d="M52.3696 66.3581C52.3696 66.3581 25.6519 61.9949 14.9514 92.1561L7.25684 115.711L29.5889 119.984L28.0073 179.723L97.2131 173.487L93.2201 129.137L87.8922 128.251L89.0139 119.636L115.81 110.013C115.81 110.013 95.0708 63.3746 71.8302 67.2218L52.3696 66.3581Z" fill="#2B6684"/>
<path d="M126.477 203.771L83.7758 205.869C72.5593 207.248 53.0539 207.293 41.0634 206.396C25.0463 205.196 27.9962 179.858 27.9962 179.858L97.46 173.341C102.968 171.424 108.933 171.252 114.543 172.848C114.543 172.848 111.402 200.967 126.477 203.771Z" fill="#032E42"/>
<path d="M7.25692 115.789C7.25692 115.789 1.05419 142.709 0.975676 146.321C0.863511 151.02 6.84192 159.119 12.3156 160.218C21.0869 161.979 29.589 154.318 29.589 154.318L30.6545 118.167L7.25692 115.789Z" fill="#2B6684"/>
<path d="M163.57 148.463L167.54 150.089C171.276 151.211 173.306 152.052 174.719 151.514C176.603 150.807 175.291 148.766 175.291 148.766C175.291 148.766 178.263 148.979 178.656 147.296C178.716 146.942 178.663 146.578 178.504 146.255C178.345 145.933 178.088 145.669 177.77 145.502C177.77 145.502 180.439 145.58 181.292 144.806C182.414 143.774 181.135 142.395 181.135 142.395C185.072 141.789 185.621 139.759 184.96 139.265C184.298 138.772 181.404 138.862 181.404 138.862C179.093 138.581 172.756 137.919 176.144 135.699C179.531 133.478 181.303 130.505 181.225 129.361C181.178 129.102 181.052 128.864 180.863 128.679C180.675 128.495 180.433 128.374 180.173 128.334C179.913 128.293 179.646 128.334 179.41 128.452C179.175 128.57 178.982 128.758 178.858 128.991C178.015 130.065 177.03 131.02 175.93 131.829C175.071 132.513 174.099 133.045 173.059 133.399C171.836 133.814 170.816 134.117 169.896 134.353L164.949 136.259L163.57 148.463Z" fill="#FFBE9D"/>
<path d="M87.8924 128.329L81.2971 142.507L37.5527 137.056L35.8927 135.351C35.1861 134.756 34.3673 134.039 33.4475 133.108C32.6627 132.336 32.0142 131.437 31.5295 130.449C30.8708 129.249 30.3873 127.961 30.0938 126.624C30.0811 126.361 29.9866 126.108 29.8235 125.901C29.6604 125.694 29.4368 125.543 29.1838 125.469C28.9308 125.395 28.661 125.402 28.412 125.488C28.1629 125.574 27.947 125.736 27.7944 125.951C27.2336 126.95 27.5588 130.438 29.6675 133.803C31.7762 137.168 25.7754 135.138 23.5658 134.409C23.5658 134.409 20.9748 133.085 20.2008 133.287C19.4269 133.489 19.0231 135.53 22.3208 137.774C22.3208 137.774 20.5373 138.447 21.143 139.894C21.5917 140.948 24.0369 142.025 24.0369 142.025C23.6786 142.039 23.3341 142.166 23.0522 142.388C22.7702 142.609 22.5653 142.914 22.4665 143.258C22.13 144.963 24.9118 146.051 24.9118 146.051C24.9118 146.051 22.8479 147.33 24.25 148.777C25.2931 149.899 27.4691 150.011 31.35 150.56H32.2137C43.3292 153.858 86.7034 165.994 94.2185 156.685C100.312 149.253 104.937 140.73 107.847 131.571L87.8924 128.329Z" fill="#FFBE9D"/>
<path d="M81.6783 110.428C81.6783 110.428 100.174 137.673 107.476 140.286C114.778 142.9 165.353 152.019 165.353 152.019L167.72 133.904C167.72 133.904 123.527 119.379 121.99 118.257C120.869 117.427 108.351 96.0034 101.06 85.5496C93.9267 75.2977 80.6913 66.3582 73.8492 79.9413C73.7819 80.0759 73.9277 79.818 73.8492 79.9413C65.7733 92.7281 81.6783 110.428 81.6783 110.428Z" fill="#2B6684"/>
</svg>
