<svg width="304" height="205" viewBox="0 0 304 205" fill="none" xmlns="http://www.w3.org/2000/svg">
<path d="M60.2925 191.614L75.5714 55.7422C75.5714 55.7422 141.78 55.7422 184.22 79.5183L129.283 194.154C126.336 200.298 120.131 204.249 113.315 204.213C101.669 204.162 82.2713 202.078 60.2925 191.614Z" fill="#032E42"/>
<path d="M239.395 43.0051C239.395 43.0051 235.151 86.3136 184.221 79.5184C184.221 79.5184 164.673 101.091 164.261 120.029C164.261 120.029 257.221 144.055 248.733 47.2508L239.395 43.0051Z" fill="#032E42"/>
<path d="M53.5038 176.323C53.5038 176.323 60.2941 164.44 70.4805 166.134C80.6662 167.834 85.7587 178.024 85.7587 178.024C85.7587 178.024 75.573 183.118 68.782 186.512C61.9918 189.914 50.1083 186.512 53.5038 176.323Z" fill="#FFBE9D"/>
<path d="M73.8746 98.2037C73.8746 98.2037 -12.7051 137.267 53.5032 176.323L54.9376 184.798C54.9376 184.798 2.29029 192.44 0.027605 131.319C-1.67086 85.4672 75.5724 55.7426 75.5724 55.7426L73.8746 98.2037Z" fill="#032E42"/>
<path d="M278.761 14.6077C278.761 18.7262 281.306 20.3279 282.232 20.7855L285.009 19.4126C281.677 17.2161 281.075 14.6077 280.843 13.2348L278.761 14.6077Z" fill="#2B6684"/>
<path d="M280.844 13.2358C281.075 14.6086 281.677 17.217 285.009 19.4136C288.943 19.4136 296.371 16.9532 299.588 13.2358C303.801 8.36817 303.291 2.93946 303.754 2.25304C300.514 1.79542 293.349 3.14704 290.043 5.35147C286.878 7.46108 283.389 11.8629 280.844 13.2358Z" fill="#B78876"/>
<path d="M252.38 28.3361C251.223 29.4801 248.909 32.0428 248.909 33.141C249.464 33.141 253.306 33.5987 255.157 33.8275L282.232 20.7855C281.306 20.3279 278.761 18.7262 278.761 14.6077C278.205 14.6077 261.173 24.4464 252.38 28.3361Z" fill="#98C1C5"/>
<path d="M239.396 43.0054C239.396 43.0054 240.166 33.1715 241.479 32.1439C242.791 31.1171 252.977 20.9272 254.674 20.9272C256.372 20.9272 258.07 24.3233 254.674 26.0218C251.28 27.7209 250.435 32.9096 250.435 32.9096L259.648 33.6962C259.648 33.6962 252.977 46.4023 249.582 48.1007C246.186 49.7991 239.396 43.0054 239.396 43.0054Z" fill="#FFBE9D"/>
<path d="M129.434 15.8308C127.81 22.5622 129.648 29.1226 133.039 34.7941L119.519 68.8373C122.156 71.6084 130.918 72.8126 145.55 75.9933L142.239 45.5412C147.576 50.1201 153.12 52.8315 155.978 52.5864C163.145 51.9716 168.004 26.9507 164.356 16.1505C160.708 5.35039 134.114 -3.56429 129.434 15.8308Z" fill="#FFBE9D"/>
<path d="M143.938 23.0028C143.728 22.941 143.511 22.891 143.289 22.8536C140.25 22.3423 137.371 24.3914 136.86 27.4305C136.601 28.9733 137.001 30.4746 137.855 31.6459C136.28 33.2288 134.537 34.8661 132.576 36.5282C127.053 31.8092 123.927 19.8827 131.677 10.5291C134.191 5.73118 138.788 4.02239 143.438 3.50993C147.286 2.61097 151.047 3.06938 154.046 4.50104C160.133 6.06989 165.33 8.88096 166.705 10.2623C165.721 16.1091 164.297 17.6533 154.646 15.8722C152.057 16.7278 149.865 18.5826 147.484 21.0971C146.501 22.7433 144.711 23.0535 143.938 23.0028Z" fill="#2B6684"/>
</svg>
