<svg width="511" height="427" viewBox="0 0 511 427" fill="none" xmlns="http://www.w3.org/2000/svg">
<path d="M61 425C61 320.066 150.767 235 261.5 235C372.233 235 462 320.066 462 425H61Z" fill="#F6F6F6"/>
<path d="M127.616 173.614C128.063 173.889 128.589 174.176 129.175 174.454V161.921C131.254 160.102 136.191 153.19 139.309 140.094C141.647 140.354 146.636 142.745 147.883 150.228C149.443 159.582 147.883 168.937 145.545 168.937C143.674 168.937 141.647 167.897 140.868 167.377L141.647 174.397C142.202 173.969 142.725 173.453 143.206 172.834C144.51 172.182 147.993 170.768 152.745 169.593C156.633 137.689 145.408 128.319 139.309 127.622C132.652 125.803 117.563 126.842 110.466 145.551C103.369 164.259 102.832 169.374 103.451 169.593C113.626 173.039 123.079 173.795 127.616 173.614Z" fill="#032E42"/>
<path d="M108.128 196.999C105.079 195.87 102.224 194.558 99.5531 193.093C99.0334 203.749 98.15 227.712 98.7736 238.314C99.6911 238.834 102.186 239.873 104.827 239.873C105.861 221.569 107.244 205.539 108.128 196.999Z" fill="#032E42"/>
<path d="M90.1989 163.48C75.8557 154.749 71.2305 140.094 70.7108 133.858H70.3059H65.2542H63.6951C64.4041 148.273 72.7212 178.378 99.5531 193.093C102.224 194.558 105.079 195.87 108.128 196.999C107.244 205.539 105.861 221.569 104.827 239.873C104.036 253.873 103.451 269.202 103.451 283.526C105.264 284.338 107.427 285.161 109.761 285.865C120.132 288.992 133.884 289.746 135.411 276.511C135.984 271.542 136.698 264.98 137.438 257.802C139.715 235.7 142.236 207.752 141.647 202.456C141.024 196.843 132.033 180.889 127.616 173.614C123.079 173.795 113.626 173.039 103.451 169.593C99.0555 168.104 94.5255 166.113 90.1989 163.48Z" fill="#98C1C5"/>
<path d="M185.301 115.15C183.741 152.567 163.474 167.377 155.679 168.937C154.656 169.141 153.676 169.362 152.745 169.593C147.993 170.768 144.51 172.182 143.206 172.834C153.993 181.745 158.402 221.783 159.815 254.684C160.28 265.531 160.42 275.602 160.356 283.526C166.592 283.526 174.387 279.629 175.946 278.07C174.699 258.737 169.71 212.33 167.372 191.543C190.445 173.458 193.875 138.535 192.316 115.15C191.226 116.24 188.072 115.821 186.08 115.351C185.793 115.284 185.53 115.215 185.301 115.15Z" fill="#98C1C5"/>
<path d="M107.348 412.147L100.333 410.588L95.6555 416.824V424.62H123.718L107.348 412.147Z" fill="#98C1C5"/>
<path d="M153.34 412.147L145.545 410.588L141.647 416.824L140.868 424.62H169.71L153.34 412.147Z" fill="#98C1C5"/>
<path d="M127.616 173.614C132.033 180.889 141.024 196.843 141.647 202.456C142.236 207.752 139.715 235.7 137.438 257.802C142.378 258.582 153.769 259.049 159.815 254.684C158.402 221.783 153.993 181.745 143.206 172.834C142.725 173.453 142.202 173.969 141.647 174.397C137.833 177.334 132.524 176.044 129.175 174.454C128.589 174.176 128.063 173.889 127.616 173.614Z" fill="#032E42"/>
<path d="M129.175 161.921V174.454C132.524 176.044 137.833 177.334 141.647 174.397L140.868 167.377C141.647 167.897 143.674 168.937 145.545 168.937C147.883 168.937 149.443 159.582 147.883 150.228C146.636 142.745 141.647 140.354 139.309 140.094C136.191 153.19 131.254 160.102 129.175 161.921Z" fill="#FFBE9D"/>
<path d="M107.348 406.691L100.333 404.777V410.588L107.348 412.147V406.691Z" fill="#FFBE9D"/>
<path d="M145.545 406.691V410.588L153.34 412.147V406.691H145.545Z" fill="#FFBE9D"/>
<path d="M186.08 115.351C188.072 115.821 191.226 116.24 192.316 115.15C196.682 103.301 191.537 98.7796 188.418 98C186.385 101.05 185.94 104.999 185.986 107.48C186.045 107.873 186.08 108.346 186.08 108.913C186.032 108.529 185.996 108.042 185.986 107.48C185.718 105.718 184.946 105.583 184.521 105.795C182.026 109.537 184.521 113.725 186.08 115.351Z" fill="#FFBE9D"/>
<path d="M62.9156 118.268C58.5503 125.127 62.6558 131.519 65.2542 133.858H70.3059C71.4603 131.519 71.49 125.283 70.7108 124.504C70.0874 123.88 68.8918 125.283 68.372 126.063C67.7483 121.074 64.4745 118.787 62.9156 118.268Z" fill="#FFBE9D"/>
<path d="M137.438 257.802C136.698 264.98 135.984 271.542 135.411 276.511C133.884 289.746 120.132 288.992 109.761 285.865L98.7736 404.352L100.333 404.777L107.348 406.691L131.833 335.754L159.815 254.684C153.769 259.049 142.378 258.582 137.438 257.802Z" fill="#2B6684"/>
<path d="M160.356 283.526C160.42 275.602 160.28 265.531 159.815 254.684L131.833 335.754L145.545 406.691H153.34H154.12L160.356 283.526Z" fill="#032E42"/>
<path d="M262.619 62.1599C263.418 62.7586 265.733 63.5969 268.607 62.1599C269.206 60.3636 272.798 58.5674 273.996 52.5799C272.998 52.1808 270.762 51.8614 269.804 53.7774C270.204 50.5841 269.924 43.958 265.613 43C263.018 43.9979 258.787 49.2269 262.619 62.1599Z" fill="#FFBE9D"/>
<path d="M398.535 82.5172C399.333 83.5151 401.768 85.3912 405.121 84.9122C412.306 73.8953 410.909 68.3469 409.312 66.9498C403.564 65.9918 401.329 72.9373 400.93 76.5298C400.451 73.6558 399.133 72.9373 398.535 72.9373C397.098 75.8113 397.936 80.5214 398.535 82.5172Z" fill="#FFBE9D"/>
<path d="M332.673 126.752L332.074 115.448C333.072 114.251 335.068 110.658 335.068 105.868C332.673 106.068 327.763 104.91 327.284 98.6834C326.805 92.4564 320.299 90.1013 317.105 89.7022C311.317 99.0825 303.454 118.322 318.303 120.238V125.627C318.303 126.527 320.896 131.59 322.192 134.009H327.581L332.673 126.752Z" fill="#FFBE9D"/>
<path d="M398.535 82.5172C374.585 137.602 341.055 125.627 335.068 125.627L336.562 131.016L327.581 134.009V136.404C323.508 164.186 303.633 195.281 292.557 205.26V229.21C292.557 232.008 293.282 234.385 294.57 236.395C298.935 243.207 309.758 245.812 320.698 246.372C328.081 246.75 335.517 246.197 341.055 245.376C355.425 243.939 361.013 238.79 362.011 236.395L350.635 155.564C386.081 141.673 401.728 102.675 405.121 84.9122C401.768 85.3912 399.333 83.5151 398.535 82.5172Z" fill="#032E42"/>
<path d="M314.112 125.627C275.313 116.047 267.609 79.3239 268.607 62.1599C265.733 63.5969 263.418 62.7586 262.619 62.1599C253.039 105.27 278.586 133.61 292.557 142.392V186.387C309.116 170.478 319.048 147.234 322.192 136.404V134.009L313.81 132.213L314.112 125.627Z" fill="#032E42"/>
<path d="M424.88 338.781V347.762L448.231 360.934L433.861 330.997L424.88 338.781Z" fill="#032E42"/>
<path d="M333.271 415.42H320.698L306.927 425H337.463L333.271 415.42Z" fill="#032E42"/>
<path d="M318.303 125.627H314.112L313.81 132.213L322.192 134.009C320.896 131.59 318.303 126.527 318.303 125.627Z" fill="#2B6684"/>
<path d="M335.068 125.627C334.386 125.627 333.576 126.031 332.673 126.752L327.581 134.009L336.562 131.016L335.068 125.627Z" fill="#2B6684"/>
<path d="M294.57 236.395L320.698 415.42H333.271L341.055 313.633L320.698 246.372C309.758 245.812 298.935 243.207 294.57 236.395Z" fill="#2B6684"/>
<path d="M335.068 105.868C335.068 110.658 333.072 114.251 332.074 115.448C338.061 115.249 350.156 110.539 350.635 93.2947C351.114 76.0508 335.267 75.3323 327.284 77.1285C324.41 78.5655 316.906 78.5256 313.513 78.326C310.639 84.553 314.71 88.5047 317.105 89.7022C320.299 90.1013 326.805 92.4564 327.284 98.6834C327.763 104.91 332.673 106.068 335.068 105.868Z" fill="#2B6684"/>
<path d="M322.192 134.009V136.404H327.581V134.009H322.192Z" fill="#032E42"/>
<path d="M292.557 186.387V205.26C303.633 195.281 323.508 164.186 327.581 136.404H322.192C319.048 147.234 309.116 170.478 292.557 186.387Z" fill="#98C1C5"/>
<path d="M285.07 192.687V202.865L292.557 205.26V186.387C290.196 188.655 287.7 190.774 285.07 192.687Z" fill="#98C1C5"/>
<path d="M362.011 236.395C361.013 238.79 355.425 243.939 341.055 245.376C335.517 246.197 328.081 246.75 320.698 246.372L341.055 313.633C342.452 318.423 348.599 328.961 362.011 332.793C375.423 336.625 409.512 344.369 424.88 347.762V338.781L369.196 304.053L362.011 236.395Z" fill="#98C1C5"/>
<path d="M0 425H510.5" stroke="#032E42" stroke-width="3"/>
<path d="M51 135.667C41.1214 125.8 46.8839 114.444 51 110L48.4003 98C35.1422 119.6 40.4931 138.333 44.8258 145L51 135.667Z" fill="#032E42"/>
<path d="M343.599 8.61361C351.666 4.85626 357.225 10.7784 358.997 14.2091L366.761 15.2703C356.685 2.63175 344.283 1.74812 339.342 2.88613L343.599 8.61361Z" fill="#2B6684"/>
<path d="M471.976 261C471.663 255.3 465.862 251.764 463 250.708V242C471.741 244.533 477.309 252.292 479 255.854L471.976 261Z" fill="#032E42"/>
<path d="M185.597 61.4473C182.305 61.1608 179.822 64.1067 178.992 65.6155L174 64.9121C176.138 60.2477 181.023 57.7733 183.198 57.1191L185.597 61.4473Z" fill="#2B6684"/>
<path d="M276 183.645L281 173H286L279.704 185L276 183.645Z" fill="#98C1C5"/>
<path d="M0 288.968L7.5 273H15L5.55556 291L0 288.968Z" fill="#98C1C5"/>
</svg>
