<svg width="1920" height="1045" viewBox="0 0 1920 1045" fill="none" xmlns="http://www.w3.org/2000/svg">
<g clip-path="url(#clip0_7_11)">
<path d="M1155.16 733.441C1154.26 732.586 1153.55 731.561 1153.05 730.426C1152.56 729.291 1152.29 728.069 1152.28 726.831C1152.26 725.594 1152.49 724.365 1152.96 723.217C1153.42 722.07 1154.11 721.026 1154.98 720.147C1155.99 719.083 1157.21 718.246 1158.56 717.689C1159.92 717.133 1161.38 716.871 1162.84 716.921C1162.72 715.461 1162.92 713.993 1163.42 712.615C1163.91 711.237 1164.69 709.98 1165.71 708.926C1166.55 708.016 1167.56 707.282 1168.69 706.767C1169.81 706.252 1171.03 705.967 1172.27 705.928C1173.51 705.889 1174.74 706.096 1175.9 706.539C1177.05 706.982 1178.11 707.651 1179 708.506C1185.68 714.891 1183.12 727.664 1182.79 735.993C1174.46 736.651 1161.84 739.83 1155.16 733.441Z" fill="white"/>
</g>
<path fill-rule="evenodd" clip-rule="evenodd" d="M1134.59 713.823C1139.92 727.443 1152.36 758.768 1159.46 775.112C1166.57 791.456 1180.79 791.397 1187.01 789.324C1210.11 781.33 1259.68 763.21 1273.19 754.682C1286.69 746.155 1283.55 728.035 1280.3 720.041L1256.31 650.758C1245.65 650.047 1248.9 642.763 1251.86 639.21L1247.42 631.216C1234.63 629.084 1239.13 619.077 1242.98 614.34L1239.43 604.569C1221.66 601.726 1227.88 592.133 1233.21 587.692L1230.54 579.698C1212.06 578.987 1216.33 566.966 1220.77 561.045L1217.18 552.162C1175.22 513.79 1149.37 532.621 1141.69 546.833C1124.7 542.096 1091.82 546.122 1096.22 600.128C1097.15 606.164 1097.79 612.112 1098.16 617.004L1134.59 713.823ZM1118.59 518.409C1114.45 520.185 1117.16 527.088 1121.26 524.627C1125.7 521.962 1123.04 516.506 1118.59 518.409ZM1139.92 510.415C1137.25 511.481 1137.89 517.012 1141.69 515.744C1145.5 514.476 1144.36 508.638 1139.92 510.415Z" fill="#2B6684"/>
<path d="M1920 264.371C1913.19 252.231 1888.01 221.735 1841.81 196.864C1795.61 171.993 1775.29 131 1760.96 114.257C1741.71 91.7547 1676.73 53.5009 1570.83 80.5035C1547.9 86.3487 1507.39 92.3466 1460.66 80.5035C1255.95 28.63 1173.98 181.468 1158.57 264.371C1151.47 314.112 1133.7 332.353 1084.83 358.525C1026.78 389.613 994.544 459.921 965.775 582.363C934.678 714.711 741.193 754.682 597.945 728.035C505.914 710.915 350.06 741.063 259.435 777.777C127.941 815.915 31.689 714.318 0 658.752C71.789 1001.26 419.658 970.23 584.618 911.902C768.118 855.764 903.805 844.598 1004.61 856.673L1065.28 680.07C1072.1 662.601 1084.3 622.156 1078.61 600.128C1072.93 578.099 1076.24 570.815 1078.61 569.927C1076.39 566.153 1073.99 560.664 1072.82 554.827C1070.88 545.096 1072.39 534.398 1083.94 529.068C1107.04 518.409 1162.13 494.426 1169.24 494.426C1170.36 494.426 1171.72 494.272 1173.25 494.099C1180.2 493.311 1190.59 492.134 1197.22 503.309C1198.39 505.273 1199.44 507.618 1200.33 510.415L1217.18 552.162L1220.77 561.045C1231.43 545.945 1253.64 580.586 1230.54 579.698L1233.21 587.692C1242.09 575.257 1261.64 608.122 1239.43 604.569L1242.98 614.34C1255.42 604.569 1263.42 633.881 1247.42 631.216L1251.86 639.21C1258.97 632.104 1269.63 651.646 1256.31 650.758L1280.3 720.041C1283.55 728.035 1286.69 746.155 1273.19 754.682C1259.68 763.21 1210.11 781.33 1187.01 789.324C1180.79 791.397 1166.57 791.456 1159.46 775.112C1152.36 758.768 1139.92 727.443 1134.59 713.823C1108.29 762.144 1099.34 842.708 1098.16 876.95C1131.09 887.793 1158.6 901.423 1181.68 916.205C1259.15 965.837 1346.64 936.885 1380.69 916.205C1452.13 862.437 1501.44 809.755 1534.48 760.012C1559.44 561.045 1500.64 557.492 1466.88 550.386C1433.11 543.28 1380.69 590.357 1358.48 592.133C1336.27 593.91 1328.27 575.257 1331.83 557.492C1334.67 543.28 1327.09 528.476 1322.94 522.85C1305.17 512.902 1315.54 499.756 1322.94 494.426C1303.04 497.979 1300.43 489.393 1301.62 484.656C1305.88 478.26 1299.84 471.924 1296.29 469.555C1263.59 468.845 1269.63 451.494 1276.74 442.908C1284.74 433.729 1298.24 404.003 1288.29 358.525C1278.34 313.046 1284.15 276.806 1288.29 264.371C1304.88 270.292 1351.91 278.582 1407.35 264.371C1462.79 250.159 1485.53 309.375 1489.98 340.76C1492.49 358.525 1501.92 402.08 1530.85 423.367C1557.41 442.908 1654.04 580.011 1534.48 760.012C1501.44 809.755 1452.13 862.437 1380.69 916.205C1346.64 936.885 1259.15 965.837 1181.68 916.205C1158.6 901.423 1131.09 887.793 1098.16 876.95C1070.88 867.967 1039.88 860.897 1004.61 856.673C903.805 844.598 768.118 855.764 584.618 911.902C419.658 970.23 71.789 1001.26 0 658.752V1030.5H1920V264.371Z" fill="#2B6684"/>
<path fill-rule="evenodd" clip-rule="evenodd" d="M1134.59 713.823C1139.92 727.443 1152.36 758.768 1159.46 775.112C1166.57 791.456 1180.79 791.397 1187.01 789.324C1210.11 781.33 1259.68 763.21 1273.19 754.682C1286.69 746.155 1283.55 728.035 1280.3 720.041L1256.31 650.758C1245.65 650.047 1248.9 642.763 1251.86 639.21L1247.42 631.216C1234.63 629.084 1239.13 619.077 1242.98 614.34L1239.43 604.569C1221.66 601.726 1227.88 592.133 1233.21 587.692L1230.54 579.698C1212.06 578.987 1216.33 566.966 1220.77 561.045L1217.18 552.162C1175.22 513.79 1149.37 532.621 1141.69 546.833C1124.7 542.096 1091.82 546.122 1096.22 600.128C1097.15 606.164 1097.79 612.112 1098.16 617.004L1134.59 713.823ZM1118.59 518.409C1114.45 520.185 1117.16 527.088 1121.26 524.627C1125.7 521.962 1123.04 516.506 1118.59 518.409ZM1139.92 510.415C1137.25 511.481 1137.89 517.012 1141.69 515.744C1145.5 514.476 1144.36 508.638 1139.92 510.415Z" fill="white"/>
<path d="M1407.35 264.371C1351.91 278.582 1304.88 270.292 1288.29 264.371C1284.15 276.806 1278.34 313.046 1288.29 358.525C1298.24 404.003 1284.74 433.729 1276.74 442.908C1269.63 451.494 1263.59 468.845 1296.29 469.555C1299.84 471.924 1305.88 478.26 1301.62 484.656C1300.43 489.393 1303.04 497.979 1322.94 494.426C1315.54 499.756 1305.17 512.902 1322.94 522.85C1327.09 528.476 1334.67 543.28 1331.83 557.492C1328.27 575.257 1336.27 593.91 1358.48 592.133C1380.69 590.357 1433.11 543.28 1466.88 550.386C1500.64 557.492 1559.44 561.045 1534.48 760.012C1654.04 580.011 1557.41 442.908 1530.85 423.367C1501.92 402.08 1492.49 358.525 1489.98 340.76C1485.53 309.375 1462.79 250.159 1407.35 264.371Z" fill="white"/>
<path d="M1078.61 569.927C1076.24 570.815 1072.93 578.099 1078.61 600.128C1084.3 622.156 1072.1 662.601 1065.28 680.07L1004.61 856.673C1039.88 860.897 1070.88 867.967 1098.16 876.95C1099.34 842.708 1108.29 762.144 1134.59 713.823L1098.16 617.004C1097.79 612.112 1097.15 606.164 1096.22 600.128C1093.36 581.69 1087.71 562.432 1078.61 569.927Z" fill="white"/>
<path fill-rule="evenodd" clip-rule="evenodd" d="M1118.59 518.409C1114.45 520.185 1117.16 527.088 1121.26 524.627C1125.7 521.962 1123.04 516.506 1118.59 518.409ZM1139.92 510.415C1137.25 511.481 1137.89 517.012 1141.69 515.744C1145.5 514.476 1144.36 508.638 1139.92 510.415ZM1166.57 644.54C1171.31 645.724 1182.03 645.783 1187.01 636.546C1187.6 644.54 1184.34 657.331 1166.57 644.54Z" fill="#98C1C5"/>
<path fill-rule="evenodd" clip-rule="evenodd" d="M1266.46 680.07C1255.38 673.726 1223.29 677.426 1208.63 680.07C1209.84 681.536 1210.96 682.736 1211.88 683.623L1206.55 708.494L1179.9 693.393C1179.9 691.57 1179.77 689.767 1179.54 688C1168.11 697.058 1144.18 717.606 1139.92 727.337C1145.98 742.607 1154.19 762.984 1159.46 775.112C1166.57 791.456 1180.79 791.397 1187.01 789.324C1210.11 781.33 1259.68 763.21 1273.19 754.682C1286.69 746.155 1283.55 728.035 1280.3 720.041L1266.46 680.07Z" fill="#98C1C5"/>
<path d="M1230.54 579.698C1212.06 578.987 1216.33 566.966 1220.77 561.045L1217.18 552.162C1175.22 513.79 1149.37 532.621 1141.69 546.833C1124.7 542.096 1091.82 546.122 1096.22 600.128C1097.15 606.164 1097.79 612.112 1098.16 617.004L1124.5 683.623C1144.91 693.393 1172.59 687.38 1177.82 680.07C1175.26 671.577 1170.94 664.69 1168.35 661.531C1153.57 653.018 1136.1 634.713 1126.59 623.222C1123.92 617.893 1122.86 604.036 1139.92 591.245C1152.34 581.93 1153.27 579.116 1153.88 577.245C1154.11 576.547 1154.3 575.981 1155.02 575.257C1155.82 575.523 1156.81 575.87 1157.94 576.267L1157.95 576.269C1164.35 578.515 1175.32 582.363 1182.56 582.363C1191.09 582.363 1200.33 587.692 1200.33 596.575C1200.33 597.662 1200.34 598.805 1200.34 599.996V599.998C1200.37 614.765 1200.42 636.91 1195.89 651.482C1196.54 658.278 1198.97 664.653 1201.87 670C1214.09 668.619 1240.31 658.929 1247.42 631.216C1234.63 629.084 1239.13 619.077 1242.98 614.34L1239.43 604.569C1221.66 601.726 1227.88 592.133 1233.21 587.692L1230.54 579.698Z" fill="#98C1C5"/>
<path fill-rule="evenodd" clip-rule="evenodd" d="M1118.59 518.409C1114.45 520.185 1117.16 527.088 1121.26 524.627C1125.7 521.962 1123.04 516.506 1118.59 518.409ZM1139.92 510.415C1137.25 511.481 1137.89 517.012 1141.69 515.744C1145.5 514.476 1144.36 508.638 1139.92 510.415ZM1166.57 644.54C1171.31 645.724 1182.03 645.783 1187.01 636.546C1187.6 644.54 1184.34 657.331 1166.57 644.54Z" fill="#032E42"/>
<path fill-rule="evenodd" clip-rule="evenodd" d="M1208.63 680.07C1223.29 677.426 1255.38 673.726 1266.46 680.07L1280.3 720.041C1283.55 728.035 1286.69 746.155 1273.19 754.682C1259.68 763.21 1210.11 781.33 1187.01 789.324C1180.79 791.397 1166.57 791.456 1159.46 775.112C1154.19 762.984 1145.98 742.607 1139.92 727.337C1144.18 717.606 1168.11 697.058 1179.54 688C1179.77 689.767 1179.9 691.57 1179.9 693.393L1206.55 708.494L1211.88 683.623C1210.96 682.736 1209.84 681.536 1208.63 680.07Z" fill="#032E42"/>
<path fill-rule="evenodd" clip-rule="evenodd" d="M1118.59 518.409C1114.45 520.185 1117.16 527.088 1121.26 524.627C1125.7 521.962 1123.04 516.506 1118.59 518.409ZM1139.92 510.415C1137.25 511.481 1137.89 517.012 1141.69 515.744C1145.5 514.476 1144.36 508.638 1139.92 510.415ZM1166.57 644.54C1171.31 645.724 1182.03 645.783 1187.01 636.546C1187.6 644.54 1184.34 657.331 1166.57 644.54Z" fill="#F6F6F6"/>
<path d="M1123.5 683.623L1134.59 713.823C1135.96 717.336 1137.81 722.028 1139.92 727.337C1144.18 717.606 1168.11 697.058 1179.54 688C1179.19 685.252 1178.58 682.59 1177.82 680.07C1172.59 687.38 1143.5 694.5 1123.5 683.623Z" fill="#F6F6F6"/>
<path d="M1256.31 650.758C1245.65 650.047 1248.9 642.763 1251.86 639.21L1247.42 631.216C1244.69 641.644 1231.76 664 1201.87 670C1204.04 674.025 1206.49 677.467 1208.63 680.07C1223.29 677.426 1255.38 673.726 1266.46 680.07L1256.31 650.758Z" fill="#F6F6F6"/>
<path fill-rule="evenodd" clip-rule="evenodd" d="M1166.57 644.54C1171.31 645.724 1182.03 645.783 1187.01 636.546C1187.6 644.54 1184.34 657.331 1166.57 644.54Z" fill="#9D9D9D"/>
<path fill-rule="evenodd" clip-rule="evenodd" d="M1118.59 518.409C1114.45 520.185 1117.16 527.088 1121.26 524.627C1125.7 521.962 1123.04 516.506 1118.59 518.409ZM1139.92 510.415C1137.25 511.481 1137.89 517.012 1141.69 515.744C1145.5 514.476 1144.36 508.638 1139.92 510.415Z" fill="#9D9D9D"/>
<path d="M1118.59 518.409C1114.45 520.185 1117.16 527.088 1121.26 524.627C1125.7 521.962 1123.04 516.506 1118.59 518.409Z" fill="#9D9D9D"/>
<path d="M1139.92 510.415C1137.25 511.481 1137.89 517.012 1141.69 515.744C1145.5 514.476 1144.36 508.638 1139.92 510.415Z" fill="#9D9D9D"/>
<path fill-rule="evenodd" clip-rule="evenodd" d="M1083.94 529.068C1107.04 518.409 1162.02 496.499 1169.24 494.426C1176.45 492.354 1192.15 491.229 1197.22 503.309L1072.82 554.827C1070.88 545.096 1072.39 534.398 1083.94 529.068ZM1118.59 518.409C1114.45 520.185 1117.16 527.088 1121.26 524.627C1125.7 521.962 1123.04 516.506 1118.59 518.409ZM1139.92 510.415C1137.25 511.481 1137.89 517.012 1141.69 515.744C1145.5 514.476 1144.36 508.638 1139.92 510.415Z" fill="#9D9D9D"/>
<path d="M1098.16 617.004L1134.59 713.823C1139.92 727.443 1152.36 758.768 1159.46 775.112C1166.57 791.456 1180.79 791.397 1187.01 789.324C1210.11 781.33 1259.68 763.21 1273.19 754.682C1286.69 746.155 1283.55 728.035 1280.3 720.041L1256.31 650.758M1078.61 569.927C1076.39 566.153 1073.99 560.664 1072.82 554.827M1220.77 561.045L1217.18 552.162L1200.33 510.415C1199.44 507.618 1198.39 505.273 1197.22 503.309M1230.54 579.698L1233.21 587.692M1239.43 604.569L1242.98 614.339M1247.42 631.216L1251.86 639.21M1197.22 503.309L1072.82 554.827M1197.22 503.309C1192.15 491.229 1176.45 492.354 1169.24 494.426C1162.02 496.499 1107.04 518.409 1083.94 529.068C1072.39 534.398 1070.88 545.096 1072.82 554.827M1118.59 518.409C1114.45 520.185 1117.16 527.088 1121.26 524.627C1125.7 521.962 1123.04 516.506 1118.59 518.409ZM1139.92 510.415C1137.25 511.481 1137.89 517.012 1141.69 515.744C1145.5 514.476 1144.36 508.638 1139.92 510.415ZM1166.57 644.54C1171.31 645.724 1182.03 645.783 1187.01 636.546C1187.6 644.54 1184.34 657.331 1166.57 644.54Z" stroke="#9D9D9D" stroke-width="5"/>
<path fill-rule="evenodd" clip-rule="evenodd" d="M1182.56 582.363C1191.09 582.363 1200.33 587.692 1200.33 596.575C1200.33 597.662 1200.34 598.805 1200.34 599.996C1200.37 614.764 1200.42 636.909 1195.89 651.482C1197.31 666.274 1207.14 679.073 1211.88 683.623L1206.55 708.494L1179.9 693.393C1179.9 679.181 1172.2 666.23 1168.35 661.531C1153.57 653.018 1136.1 634.713 1126.59 623.222C1123.92 617.892 1122.86 604.036 1139.92 591.245C1152.34 581.93 1153.27 579.116 1153.88 577.245C1154.11 576.547 1154.3 575.981 1155.02 575.257C1155.82 575.523 1156.81 575.87 1157.94 576.267L1157.95 576.268C1164.35 578.515 1175.32 582.363 1182.56 582.363Z" fill="#C6D6D4"/>
<path fill-rule="evenodd" clip-rule="evenodd" d="M1166.57 644.54C1171.31 645.724 1182.03 645.783 1187.01 636.546C1187.6 644.54 1184.34 657.331 1166.57 644.54Z" fill="#C6D6D4"/>
<path d="M1078.61 569.927C1087.71 562.432 1093.36 581.69 1096.22 600.128C1097.15 606.164 1097.79 612.112 1098.16 617.004C1098.37 620.488 1099.29 628.363 1101.29 632C1103.29 635.637 1123.13 689.849 1132.79 716.5M1139.92 611.675C1139.92 609.01 1143.47 601.016 1155.02 604.569M1172.79 600.128C1173.68 595.982 1177.77 588.936 1187.01 593.91M1168.35 613.451C1173.68 616.708 1184.34 621.445 1172.79 628.551M1168.35 661.531C1175.65 665.741 1182.3 667.556 1187.01 664.97C1191.09 662.726 1193.92 657.821 1195.89 651.482M1168.35 661.531C1153.57 653.018 1136.1 634.713 1126.59 623.222C1123.92 617.892 1122.86 604.036 1139.92 591.245C1152.34 581.93 1153.27 579.116 1153.88 577.245C1154.11 576.547 1154.3 575.981 1155.02 575.257C1155.82 575.523 1156.81 575.87 1157.94 576.267L1157.95 576.268C1164.35 578.515 1175.32 582.363 1182.56 582.363C1191.09 582.363 1200.33 587.692 1200.33 596.575C1200.33 597.662 1200.34 598.805 1200.34 599.996C1200.37 614.764 1200.42 636.909 1195.89 651.482M1168.35 661.531C1172.2 666.23 1179.9 679.181 1179.9 693.393L1206.55 708.494L1211.88 683.623C1207.14 679.073 1197.31 666.274 1195.89 651.482M1220.77 561.045C1212.86 571.589 1213.82 581.29 1230.54 579.698C1256.31 577.245 1228.68 550.5 1220.77 561.045ZM1234.32 588C1228.99 592.441 1221.43 604.569 1239.43 604.569C1258.83 604.569 1242.98 582.363 1234.32 588ZM1242.98 614.339C1239.13 619.077 1234.55 632.818 1247.42 631.216C1268.83 628.551 1251.86 607.5 1242.98 614.339ZM1253.83 639C1250.86 642.553 1246 653.584 1256.31 650.758C1271.83 646.5 1259.83 636.546 1253.83 639ZM1166.57 644.54C1171.31 645.724 1182.03 645.783 1187.01 636.546C1187.6 644.54 1184.34 657.331 1166.57 644.54Z" stroke="white" stroke-width="3"/>
<path fill-rule="evenodd" clip-rule="evenodd" d="M1182.93 582.752C1174.4 582.752 1160.72 577.422 1155.39 575.646C1152.73 578.31 1157.35 578.843 1140.29 591.634C1123.23 604.425 1124.29 618.281 1126.96 623.611C1136.47 635.102 1153.94 653.408 1168.72 661.92C1176.02 666.13 1182.67 667.945 1187.38 665.359C1191.46 663.115 1194.29 658.21 1196.26 651.871C1201.16 636.123 1200.7 611.531 1200.7 596.964C1200.7 588.081 1191.46 582.752 1182.93 582.752ZM1166.94 644.929C1171.68 646.113 1182.4 646.172 1187.38 636.935C1187.97 644.929 1184.71 657.72 1166.94 644.929Z" fill="white"/>
<path d="M1187.38 665.359C1182.67 667.945 1176.02 666.13 1168.72 661.92C1172.57 666.619 1180.27 679.57 1180.27 693.782L1206.92 708.883L1212.25 684.012C1207.52 679.462 1197.68 666.663 1196.26 651.871C1194.29 658.21 1191.46 663.115 1187.38 665.359Z" fill="white"/>
<path d="M1166.94 644.929C1171.68 646.113 1182.4 646.172 1187.38 636.935C1187.97 644.929 1184.71 657.72 1166.94 644.929Z" fill="white"/>
<path fill-rule="evenodd" clip-rule="evenodd" d="M1165.95 644.929C1170.69 646.113 1181.41 646.172 1186.39 636.935C1186.98 644.929 1183.72 657.72 1165.95 644.929Z" fill="#FCECE4"/>
<path d="M1165.95 644.929C1170.69 646.113 1181.41 646.172 1186.39 636.935C1186.98 644.929 1183.72 657.72 1165.95 644.929Z" fill="#FCECE4"/>
<path d="M1312.55 390.002C1316.4 384.081 1329.08 372.237 1348.98 372.237M1139.3 612.064C1139.3 609.399 1142.85 601.405 1154.4 604.958M1172.17 600.517C1173.06 596.371 1177.15 589.325 1186.39 594.299M1167.73 613.84C1173.06 617.097 1183.72 621.834 1172.17 628.94M1165.95 644.929C1170.69 646.113 1181.41 646.172 1186.39 636.935C1186.98 644.929 1183.72 657.72 1165.95 644.929Z" stroke="#2B6684" stroke-width="3"/>
<path d="M1311.34 499.877C1313.12 498.1 1329.11 494.547 1338 483" stroke="#2B6684" stroke-width="3"/>
<path d="M1164.3 662.003C1173.59 667.449 1182.04 669.798 1188.02 666.452C1193.2 663.549 1196.81 657.201 1199.31 649" stroke="#98C1C5" stroke-width="2"/>
<path d="M1840.54 417.187C1840.54 415.217 1840.92 413.266 1841.68 411.447C1842.44 409.629 1843.55 407.98 1844.96 406.597C1846.36 405.214 1848.03 404.124 1849.86 403.392C1851.68 402.659 1853.64 402.299 1855.61 402.331C1857.94 402.314 1860.25 402.792 1862.38 403.734C1864.52 404.676 1866.42 406.06 1867.98 407.795C1869.53 406.054 1871.43 404.661 1873.56 403.71C1875.69 402.759 1877.99 402.271 1880.33 402.279C1882.3 402.238 1884.25 402.591 1886.09 403.315C1887.92 404.04 1889.59 405.123 1891 406.5C1892.41 407.877 1893.53 409.522 1894.29 411.337C1895.06 413.152 1895.46 415.101 1895.46 417.071C1895.49 431.775 1878 442.913 1868.07 451.719C1858.13 442.881 1840.57 431.901 1840.54 417.187Z" fill="#98C1C5"/>
<g clip-path="url(#clip1_7_11)">
<path d="M1668.81 985.764C1669.61 984.18 1670.72 982.772 1672.07 981.622C1673.42 980.471 1674.99 979.601 1676.68 979.063C1678.37 978.525 1680.15 978.329 1681.92 978.487C1683.69 978.645 1685.41 979.153 1686.98 979.983C1688.85 980.919 1690.51 982.245 1691.84 983.87C1693.17 985.496 1694.13 987.386 1694.68 989.413C1696.63 988.647 1698.73 988.305 1700.82 988.409C1702.92 988.513 1704.97 989.062 1706.84 990.019C1708.44 990.79 1709.87 991.871 1711.04 993.2C1712.22 994.529 1713.11 996.079 1713.68 997.76C1714.25 999.44 1714.48 1001.22 1714.36 1002.99C1714.23 1004.76 1713.75 1006.48 1712.95 1008.07C1706.98 1019.88 1688.39 1021.69 1676.83 1024.72C1672.46 1013.57 1662.84 997.59 1668.81 985.764Z" fill="#98C1C5"/>
</g>
<g clip-path="url(#clip2_7_11)">
<path d="M543.868 812.066C543.361 810.653 543.141 809.153 543.22 807.654C543.3 806.155 543.678 804.687 544.332 803.336C544.985 801.984 545.902 800.777 547.028 799.784C548.154 798.79 549.466 798.032 550.889 797.551C552.558 796.943 554.337 796.697 556.108 796.829C557.88 796.96 559.603 797.466 561.164 798.314C561.831 796.668 562.84 795.183 564.125 793.956C565.409 792.73 566.94 791.79 568.615 791.2C570.019 790.668 571.515 790.42 573.016 790.472C574.516 790.525 575.992 790.875 577.355 791.504C578.719 792.132 579.943 793.026 580.957 794.134C581.971 795.241 582.754 796.539 583.26 797.952C587.041 808.499 577.331 820.963 572.458 829.82C563.064 826.015 547.651 822.62 543.868 812.066Z" fill="#98C1C5"/>
</g>
<path d="M970.537 48.9259C969.535 46.1325 969.1 43.1675 969.257 40.2042C969.415 37.2408 970.162 34.3386 971.454 31.6671C972.746 28.9955 974.558 26.6083 976.784 24.645C979.01 22.6816 981.605 21.1815 984.417 20.2322C987.716 19.0303 991.233 18.5432 994.735 18.8031C998.237 19.063 1001.64 20.064 1004.73 21.7398C1006.05 18.4861 1008.04 15.5496 1010.58 13.1251C1013.12 10.7006 1016.15 8.84334 1019.46 7.67652C1022.24 6.62381 1025.19 6.13468 1028.16 6.23772C1031.13 6.34077 1034.04 7.03392 1036.74 8.27666C1039.43 9.5194 1041.85 11.2868 1043.86 13.4756C1045.86 15.6644 1047.41 18.2306 1048.41 21.0243C1055.89 41.8737 1036.69 66.5151 1027.06 84.0234C1008.49 76.502 978.016 69.7909 970.537 48.9259Z" fill="white"/>
<ellipse cx="1122.29" cy="524" rx="5.0013" ry="5" fill="#2B6684"/>
<ellipse cx="1143.3" cy="516" rx="5.0013" ry="5" fill="#2B6684"/>
<ellipse cx="1222.32" cy="746" rx="15.0039" ry="15" fill="#2B6684"/>
<path d="M1217 738.057L1217.35 737.707C1217.74 737.316 1218.37 737.316 1218.76 737.707L1221.14 740.082C1221.53 740.473 1221.53 741.106 1221.14 741.497L1219.48 743.157C1219.19 743.441 1219.12 743.873 1219.3 744.231C1220.34 746.302 1222.02 747.981 1224.09 749.016C1224.45 749.195 1224.88 749.125 1225.16 748.842L1226.82 747.181C1227.21 746.79 1227.85 746.79 1228.24 747.181L1230.61 749.556C1231 749.947 1231 750.58 1230.61 750.97L1230.26 751.322C1228.15 753.432 1224.81 753.67 1222.42 751.879L1221.63 751.287C1219.89 749.979 1218.34 748.431 1217.03 746.687L1216.44 745.901C1214.65 743.512 1214.88 740.168 1217 738.057Z" fill="white"/>
<defs>
<clipPath id="clip0_7_11">
<rect width="41.4028" height="41.4033" fill="white" transform="matrix(0.691153 -0.722708 0.722888 0.690965 1142.3 725.922)"/>
</clipPath>
<clipPath id="clip1_7_11">
<rect width="59.3442" height="59.3351" fill="white" transform="matrix(0.892534 0.450981 -0.451168 0.892439 1673.77 965)"/>
</clipPath>
<clipPath id="clip2_7_11">
<rect width="50.2136" height="50.2035" fill="white" transform="matrix(0.9414 -0.337292 0.337448 0.941344 534 796.937)"/>
</clipPath>
</defs>
</svg>
