<svg width="49" height="12" viewBox="0 0 49 12" fill="none" xmlns="http://www.w3.org/2000/svg">
<path d="M0.431992 5.26091C-0.0225513 5.57461 -0.136725 6.19739 0.176977 6.65194C0.49068 7.10648 1.11347 7.22065 1.56801 6.90695L0.431992 5.26091ZM24.9214 6.08393L24.295 6.86343L24.9214 6.08393ZM48.6197 6.86874C49.0532 6.52647 49.1271 5.89763 48.7848 5.46419C48.4425 5.03075 47.8137 4.95685 47.3803 5.29912L48.6197 6.86874ZM1.56801 6.90695C4.33256 4.999 7.23405 2.83551 10.8366 2.18888C14.3461 1.55894 18.689 2.3585 24.295 6.86343L25.5478 5.30442C19.6084 0.531588 14.6955 -0.535732 10.4833 0.220337C6.36399 0.959712 3.07752 3.4351 0.431992 5.26091L1.56801 6.90695ZM24.295 6.86343C29.7367 11.2363 34.4174 12.4396 38.5251 11.8671C42.5769 11.3023 45.8841 9.029 48.6197 6.86874L47.3803 5.29912C44.6851 7.42742 41.7368 9.40011 38.249 9.88624C34.8171 10.3646 30.6739 9.42365 25.5478 5.30442L24.295 6.86343Z" fill="#2B6684" fill-opacity="0.24"/>
</svg>
