<svg width="125" height="197" viewBox="0 0 125 197" fill="none" xmlns="http://www.w3.org/2000/svg">
<path d="M16.846 36.7178C24.2677 4.71148 47.7699 -0.970802 58.5933 0.188846C71.9296 -1.43591 92.2229 7.14676 102.08 36.7178C111.937 66.2888 114.836 152.103 111.937 158.481C77.6113 177.035 29.2155 166.212 9.30826 158.481C6.98897 124.271 7.56879 76.7257 16.846 36.7178Z" fill="#032E42"/>
<path d="M20.7011 78.5373C25.3738 75.3204 30.54 72.8961 36.0171 71.4078C38.0742 70.8471 49.1822 74.0767 56.049 73.9164C65.4746 73.7014 75.0691 69.4094 82.8384 71.3446C90.5563 73.2714 96.8727 75.7842 100.52 78.3813C111.437 86.1516 117.846 100.638 121.753 114.986C114.356 122.583 105.049 125.96 105.049 125.96L95.4014 189.151C72.6632 200.565 49.7641 199.097 26.7386 187.558L16.7471 125.016C16.7471 125.016 1.80729 118.055 0.711361 115.521C-0.384992 112.987 7.51996 87.6062 20.7011 78.5373Z" fill="#2B6684"/>
<path d="M36.5588 71.4765C36.5588 71.4765 40.7239 89.5341 60.9466 89.1589C81.5438 88.7879 83.3801 71.4132 83.3801 71.4132L69.9255 68.5336L68.8009 53.5327L48.5618 55.0336L48.1877 69.2841L36.5588 71.4765Z" fill="#FFBE9D"/>
<path d="M44.1399 21.925C44.1399 21.925 35.2482 58.443 57.8528 64.1896C73.7971 68.2413 79.5203 37.6651 75.6578 30.0824C69.686 18.3595 66.9859 20.1909 66.9859 20.1909L44.1399 21.925Z" fill="#FFBE9D"/>
<path d="M22.6524 132.177C22.6525 129.431 23.1999 126.714 24.2626 124.182C25.3253 121.65 26.882 119.356 28.8417 117.432C30.8014 115.509 33.1248 113.995 35.6761 112.98C38.2274 111.965 40.9554 111.468 43.7007 111.519C46.9489 111.501 50.1636 112.175 53.1317 113.494C55.4163 114.509 57.5147 115.889 59.3465 117.576C60.2245 118.384 61.6095 118.384 62.4878 117.576C64.3204 115.889 66.4193 114.509 68.7043 113.494C71.6729 112.175 74.8879 111.501 78.1362 111.519C80.8815 111.468 83.6093 111.965 86.1602 112.98C88.711 113.995 91.0338 115.509 92.9927 117.432C94.9516 119.356 96.5073 121.65 97.5689 124.182C98.6306 126.714 99.1768 129.431 99.1758 132.177C99.1715 152.42 80.9319 167.047 61.623 174.309C61.1679 174.481 60.6707 174.477 60.2192 174.297C43.1374 167.481 22.6482 152.406 22.6524 132.177Z" fill="#98C1C5"/>
<path d="M85.0552 162.838L78.8095 151.604C82.4161 150.929 85.8303 147.884 84.0115 148.159C82.1927 148.433 72.7001 148.995 72.7001 148.995L36.9868 135.068C31.3549 133.231 23.2115 130.487 22.1591 127.17L14.5872 123.692L1.7701 116.734L9.59377 138.894C10.6948 141.558 12.405 143.926 14.5872 145.81C16.7694 147.693 19.3628 149.039 22.1591 149.738L67.9555 161.184C70.909 161.969 73.9106 162.561 76.941 162.955C79.6446 163.13 82.3578 163.091 85.0552 162.838Z" fill="#FFBE9D"/>
<path d="M44.6961 170.971L49.5153 159.056C45.8534 158.828 42.0915 156.225 43.9301 156.275C45.7688 156.324 55.2578 155.716 55.2578 155.716L88.9895 137.512C94.353 134.998 104.341 129.431 104.979 126.011L109.822 123.472L121.687 114.994L116.643 137.946C115.877 140.725 114.471 143.286 112.537 145.423C110.602 147.56 108.194 149.213 105.505 150.251L61.4624 167.231C58.6277 168.373 55.7216 169.328 52.7626 170.091C50.1012 170.597 47.4039 170.891 44.6961 170.971Z" fill="#FFBE9D"/>
</svg>
