<svg width="39" height="41" viewBox="3 2 52 53" fill="none" xmlns="http://www.w3.org/2000/svg">
<path d="M44.3568 10.8478C46 13.3153 46 16.7502 46 23.6201C46 30.49 46 33.9249 44.3568 36.3924C43.6455 37.4606 42.7314 38.3777 41.6668 39.0915C39.5185 40.5317 36.6344 40.7138 31.375 40.7368V40.7402L28.6802 46.148C27.7819 47.9507 25.2181 47.9507 24.3198 46.148L21.625 40.7402V40.7368C16.3656 40.7138 13.4815 40.5317 11.3332 39.0915C10.2686 38.3777 9.35452 37.4606 8.64317 36.3924C7 33.9249 7 30.49 7 23.6201C7 16.7502 7 13.3153 8.64317 10.8478C9.35452 9.77962 10.2686 8.86246 11.3332 8.14872C13.7924 6.5 17.2157 6.5 24.0625 6.5H28.9375C35.7843 6.5 39.2076 6.5 41.6668 8.14872C42.7314 8.86246 43.6455 9.77962 44.3568 10.8478Z" fill="#98C1C5" stroke="#2B6684" stroke-width="3" stroke-linecap="round" stroke-linejoin="round"/>
<path d="M19 19.5L34 19.5" stroke="#2B6684" stroke-width="3" stroke-linecap="round" stroke-linejoin="round"/>
<path d="M19 28.5H26" stroke="#2B6684" stroke-width="3" stroke-linecap="round" stroke-linejoin="round"/>
</svg>
