<svg width="39" height="41" viewBox="3 3 52 53" fill="none" xmlns="http://www.w3.org/2000/svg">
<path d="M8.5 37.3334H20C22.8284 37.3334 24.2426 37.3334 25.1213 38.2121C26 39.0908 26 40.505 26 43.3334V15.1667C26 12.3383 26 10.9241 25.1213 10.0454C24.2426 9.16675 22.8284 9.16675 20 9.16675H8.5C7.55719 9.16675 7.08578 9.16675 6.79289 9.45964C6.5 9.75253 6.5 10.2239 6.5 11.1667V35.3334C6.5 36.2762 6.5 36.7476 6.79289 37.0405C7.08578 37.3334 7.55719 37.3334 8.5 37.3334Z" fill="#98C1C5" stroke="#2B6684" stroke-width="3"/>
<path d="M43.5 37.3334H32C29.1716 37.3334 27.7574 37.3334 26.8787 38.2121C26 39.0908 26 40.505 26 43.3334V15.1667C26 12.3383 26 10.9241 26.8787 10.0454C27.7574 9.16675 29.1716 9.16675 32 9.16675H43.5C44.4428 9.16675 44.9142 9.16675 45.2071 9.45964C45.5 9.75253 45.5 10.2239 45.5 11.1667V35.3334C45.5 36.2762 45.5 36.7476 45.2071 37.0405C44.9142 37.3334 44.4428 37.3334 43.5 37.3334Z" fill="#98C1C5" stroke="#2B6684" stroke-width="3"/>
</svg>
